<?xml version="1.0" standalone="no"?><!DOCTYPE svg PUBLIC "-//W3C//DTD SVG 1.1//EN" "http://www.w3.org/Graphics/SVG/1.1/DTD/svg11.dtd"><svg t="1667374030133" class="icon" viewBox="0 0 1024 1024" version="1.1" xmlns="http://www.w3.org/2000/svg" p-id="6102" xmlns:xlink="http://www.w3.org/1999/xlink" width="200" height="200"><path d="M606.4 428.8c-28.8 0-52.8 25.6-52.8 57.6s24 57.6 52.8 57.6c28.8 0 52.8-25.6 52.8-57.6s-24-57.6-52.8-57.6zM419.2 428.8c-28.8 0-52.8 25.6-52.8 57.6s24 57.6 52.8 57.6c28.8 0 52.8-25.6 52.8-57.6s-24-57.6-52.8-57.6z" p-id="6103" fill="#8200FF"></path><path d="M854.4 0H169.6C110.4 0 64 46.4 64 105.6v692.8c0 57.6 46.4 105.6 105.6 105.6h580.8l-27.2-94.4 65.6 60.8 62.4 57.6 108.8 96V105.6C960 46.4 913.6 0 854.4 0zM657.6 668.8s-19.2-22.4-33.6-41.6c67.2-19.2 92.8-60.8 92.8-60.8-20.8 14.4-41.6 24-59.2 30.4-25.6 11.2-49.6 17.6-73.6 22.4-49.6 9.6-94.4 6.4-132.8 0-28.8-6.4-54.4-14.4-75.2-22.4-11.2-4.8-24-9.6-36.8-17.6-1.6-1.6-3.2-1.6-4.8-3.2-1.6 0-1.6-1.6-1.6-1.6-9.6-4.8-14.4-8-14.4-8s24 41.6 89.6 60.8c-16 19.2-33.6 43.2-33.6 43.2-113.6-3.2-156.8-78.4-156.8-78.4 0-164.8 73.6-299.2 73.6-299.2 73.6-56 144-54.4 144-54.4l4.8 6.4C347.2 272 304 312 304 312s11.2-6.4 30.4-14.4c54.4-24 97.6-30.4 116.8-32 3.2 0 6.4-1.6 8-1.6 32-4.8 67.2-4.8 104-1.6 48 6.4 100.8 19.2 153.6 49.6 0 0-40-38.4-128-65.6l6.4-8s70.4-1.6 144 54.4c0 0 73.6 134.4 73.6 299.2 1.6-1.6-41.6 73.6-155.2 76.8z" p-id="6104" fill="#8200FF"></path></svg>