<?xml version="1.0" encoding="UTF-8"?>
<svg width="50px" height="50px" viewBox="0 0 50 50" version="1.1" xmlns="http://www.w3.org/2000/svg" xmlns:xlink="http://www.w3.org/1999/xlink">
    <title>币种/ones/灰色底</title>
    <defs>
        <linearGradient x1="49.0304907%" y1="-7.03978202%" x2="51.7738487%" y2="96.7478786%" id="linearGradient-1">
            <stop stop-color="#FF2E70" offset="7.668524%"></stop>
            <stop stop-color="#BE22A9" offset="39.96%"></stop>
            <stop stop-color="#8F19D3" offset="67.15%"></stop>
            <stop stop-color="#7213EC" offset="87.89%"></stop>
            <stop stop-color="#6711F6" offset="99.73%"></stop>
        </linearGradient>
        <linearGradient x1="50.2562637%" y1="102.474318%" x2="49.4706335%" y2="0.551636789%" id="linearGradient-2">
            <stop stop-color="#FF2E70" offset="7.668524%"></stop>
            <stop stop-color="#BE22A9" offset="39.96%"></stop>
            <stop stop-color="#8F19D3" offset="67.15%"></stop>
            <stop stop-color="#7213EC" offset="87.89%"></stop>
            <stop stop-color="#6711F6" offset="99.73%"></stop>
        </linearGradient>
    </defs>
    <g id="币种/ones/灰色底" stroke="none" stroke-width="1" fill="none" fill-rule="evenodd">
        <g id="编组-7备份-2">
            <circle id="椭圆形备份-2" fill="#F4F4F9" cx="25" cy="25" r="25"></circle>
            <g id="logo/eth备份-2" transform="translate(8.000000, 8.000000)" fill-rule="nonzero">
                <g id="编组">
                    <path d="M17.0395349,33.8813953 C7.70930233,33.8813953 0.118604651,26.2906977 0.118604651,16.9604651 C0.118604651,7.63023256 7.70930233,0.0263565891 17.0395349,0.0263565891 C18.7790698,0.0263565891 20.1892389,1.43643411 20.1892389,3.17596899 C20.1892389,4.91550388 18.7790698,6.3255814 17.0395349,6.3255814 C11.1883721,6.3255814 6.43100775,11.0829457 6.43100775,16.9341085 C6.43100775,22.7852713 11.1883721,27.5426357 17.0395349,27.5426357 C18.7790698,27.5426357 20.1892389,28.9527132 20.1892389,30.6922481 C20.2023256,32.4713178 18.7922481,33.8813953 17.0395349,33.8813953 Z" id="路径" fill="url(#linearGradient-1)"></path>
                    <path d="M17.0395349,0.0263565891 C18.7790698,0.0263565891 20.1891473,1.43643411 20.1891473,3.17596899 C20.1891473,4.91550388 18.7790698,6.3255814 17.0395349,6.3255814 C22.8906977,6.3255814 27.648062,11.0829457 27.648062,16.9341085 C27.648062,22.7852713 22.8906977,27.5426357 17.0395349,27.5426357 C15.3,27.5426357 13.8899225,28.9527132 13.8899225,30.6922481 C13.8899225,32.4317829 15.3,33.8418605 17.0395349,33.8418605 C26.3697674,33.8418605 33.9604651,26.2511628 33.9604651,16.9209302 C33.9604651,7.59069767 26.3829457,0.0263565891 17.0395349,0.0263565891 Z" id="路径" fill="url(#linearGradient-2)"></path>
                </g>
            </g>
        </g>
    </g>
</svg>