<!-- by TradingView --><svg width="56" height="56" xmlns="http://www.w3.org/2000/svg"><path fill="#246DD3" d="M0 0h56v56H0z"/><path d="M27.57 12.098c.785-.401 1.752.512 1.326 1.281-.23.609-1.146.77-1.638.305-.491-.449-.327-1.346.328-1.602l-.017.015zm-8.434.88c.491-.192 1.08.225 1.032.722.049.544-.639.96-1.13.688-.639-.24-.557-1.25.098-1.41zm17.292 1.427c-.753-.097-.868-1.218-.163-1.442.573-.257 1.08.224 1.162.737-.114.432-.491.833-.999.705zm-15.376 2.018c.802-.48 1.932.24 1.801 1.121-.032.914-1.26 1.442-1.965.834-.687-.481-.573-1.587.164-1.955zm12.167.529c.36-.881 1.801-.914 2.21-.064.393.672-.098 1.505-.818 1.73-.934.16-1.834-.801-1.392-1.666zm-6.665 1.602c0-.753.72-1.314 1.474-1.362.491.096 1.032.304 1.244.785.393.657.05 1.57-.671 1.89-.328.16-.72.096-1.08.08-.541-.256-1-.768-.967-1.377v-.016zm-12.543 1.121c.72-.432 1.703.353 1.424 1.122-.147.64-1.064.913-1.588.496-.557-.4-.475-1.345.164-1.618zm26.953 0c.622-.48 1.638.064 1.556.801.049.689-.819 1.218-1.441.865-.672-.304-.754-1.281-.115-1.666zm-10.873 1.362a2.508 2.508 0 011.571.007c.51.171.947.5 1.246.938.753 1.057.36 2.691-.836 3.3-1.228.737-3.029.112-3.487-1.201-.524-1.186.229-2.676 1.506-3.044zm-5.977.112c1.13-.513 2.653-.08 3.193 1.025.655 1.09.148 2.596-.998 3.156-1.147.641-2.784.16-3.325-1.009-.638-1.121-.082-2.66 1.13-3.172zm-5.993 1.97c.082-.704.77-1.153 1.474-1.201.737.08 1.326.64 1.408 1.362-.05.72-.622 1.441-1.408 1.441-.885.065-1.638-.785-1.474-1.602zm17.685-1.057c.9-.48 2.129.24 2.096 1.218.066 1.057-1.31 1.794-2.194 1.185-.934-.512-.868-1.954.098-2.403zm-14.132 3.7a2.507 2.507 0 011.57.107c.497.202.912.56 1.181 1.015.573.93.328 2.243-.54 2.916-1.114 1.01-3.177.593-3.766-.769-.688-1.25.13-2.932 1.555-3.268zm11.348 0c1.016-.288 2.21.097 2.751.978.737 1.025.377 2.563-.688 3.204-1.146.77-2.882.369-3.504-.833-.753-1.233 0-2.98 1.441-3.364v.016zM14.928 26.9c.9-.32 1.9.641 1.539 1.506-.23.785-1.375 1.074-1.965.48-.704-.528-.442-1.745.426-1.986zm24.513 1.266a1.328 1.328 0 01.35-.965c.243-.265.582-.424.944-.445.606.096 1.212.577 1.163 1.234.065.849-1.016 1.442-1.769 1.025-.36-.16-.54-.513-.688-.85zm-28.967-.833c.556-.224 1.228.224 1.097.8-.033.658-1.032.914-1.408.37-.328-.385-.131-.962.327-1.17h-.016zm34.306 0c.393-.272.998-.096 1.146.336.262.48-.213 1.122-.753 1.041-.77.065-1.032-1.057-.393-1.393v.016zm-20.158 3.14c1.425-.353 2.964.8 2.98 2.21.082 1.442-1.425 2.724-2.898 2.388a2.419 2.419 0 01-1.428-.816 2.324 2.324 0 01-.554-1.523c0-1.042.82-2.035 1.9-2.243v-.016zm5.666 0c1.457-.385 3.029.785 3.013 2.243.081 1.393-1.392 2.627-2.833 2.339-1.343-.16-2.342-1.586-1.965-2.852.196-.833.917-1.522 1.785-1.73zm-10.939.88c1.015-.16 1.965.914 1.54 1.827-.295.977-1.77 1.25-2.424.449-.77-.77-.197-2.179.884-2.275zm16.637.049c.884-.369 1.998.384 1.916 1.314.05 1.025-1.31 1.746-2.194 1.137-.983-.545-.819-2.13.278-2.451zm4.634 4.486c-.344-.641.295-1.474 1.016-1.362.36 0 .622.272.851.512.05.369.131.802-.197 1.106-.442.529-1.424.368-1.67-.256zm-26.626-1.186c.672-.432 1.638.224 1.49.977-.081.69-.966 1.074-1.539.69-.622-.353-.606-1.346.05-1.667zm13.412 1.426c.884-.385 2.014.368 1.932 1.298.065 1.04-1.326 1.762-2.194 1.137-.983-.529-.82-2.115.262-2.435zm-6.223 1.394c.77-.385 1.785.272 1.703 1.09.033.672-.655 1.249-1.326 1.136-.573 0-.95-.496-1.13-.96 0-.513.23-1.074.77-1.282l-.017.016zm12.609 0c.77-.465 1.867.208 1.801 1.073.016.93-1.228 1.506-1.965.913-.688-.48-.606-1.602.164-1.97v-.016zm2.178 5.206c-.344-.48.065-1.105.622-1.217.459.096.933.416.819.913-.05.689-1.081.897-1.441.32v-.016zm-17.374-.432c.13-.4.458-.801.95-.69.72.049.933 1.09.31 1.41-.572.353-1.211-.143-1.26-.72zm8.384.464c.13-.592.933-.88 1.457-.56.328.144.442.512.524.833l-.13.48c-.214.257-.492.497-.836.48-.671.081-1.277-.64-1.015-1.233z" fill="#fff"/></svg>