<!-- by TradingView --><svg xmlns="http://www.w3.org/2000/svg" width="56" height="56"><path fill="#F0F3FA" d="M0 0h56v56H0z"/><path d="M16.8 30.29l.98-7.4-8.49-5.92 7.76 2.63 1.83-2.82 6.69-4.17 14.75 8.16.76 12.46-6.56 9.18-5.2.8 2.7-4.94V33.5l-1.96-3.72-1.99-1.32-3.05 3.17v3.34l-2.38 2.24-3.03.37-1.34.77-2.2-.7-.91-3.32L16.8 32v-1.7z" fill="#fff"/><path d="M30.36 16.9c-1.62-.33-3.39-.24-3.39-.24s-.58 2.7-4.18 3.4c.03 0 4.76 1.63 7.57-3.16zm1.47 24.5a11.8 11.8 0 004.1-6.05c.02-.1.3-.25.48-.37.3-.18.61-.34.67-.58a13 13 0 00.18-2.18c0-.28-.27-.55-.54-.83-.22-.18-.43-.4-.43-.55-.3-2.8-1.59-5.4-3.64-7.3l-.21.2a11.45 11.45 0 013.54 7.13c.03.24.28.49.52.74.22.18.46.46.46.58 0 .7-.06 1.41-.18 2.12-.03.12-.3.24-.52.36-.3.16-.58.31-.64.56a11.34 11.34 0 01-4.65 6.35c.4-.86 1.65-3.65 2.32-5.06l-.12-4.55-3.88-3.77-2.2.3-2.4 3.93s1.12 1.45-.46 3.13c-1.56 1.66-2.78 2.03-2.78 2.03l-1.13-.61c.33-.43 1-1.08 1.52-1.5.89-.74 1.77-.8 1.77-1.6.03-1.66-1.74-1.2-1.74-1.2l-.64.61-.27 2.27-1.35 1.7-.15-.04-2.2-.49s1.35-.7 1.56-1.5c.21-.77-.43-3.32-.46-3.47.03.03.64.55.92 1.41a11.32 11.32 0 011.31-2.76c.18-.12 2.66-1.44 2.66-1.44l-.83 2.17.61-.33 1.47-3.62s1.44-.71 2.5-.71c1.93-.03 4.77-2.4 3.49-6.63.36.15 6.71 3.35 7.81 9.6.83 4.83-1.89 9.34-6.47 11.95z" fill="#94A6C3"/><path d="M24.56 17.58c.7-.83.43-2.06.43-2.06l-2.05 3.04c-.03 0 .74.03 1.62-.98zm-6.87 16.6l.24-1.22s-1 1.78-1.1 2.02c-.09.28.07.77.46.74.4-.03.89-.62.89-1.05 0-.55-.49-.49-.49-.49z" fill="#1B314F"/><path d="M35.83 14.66s1.53.06 3.11.25c-3.57-2.82-6.96-3.65-9.7-3.65-3.8 0-6.36 1.56-6.51 1.65l1.19-1.9s-4.76-.46-6.44 4.6a26.22 26.22 0 01-.83-2.63s-2.47 2.17-1.31 5.8a336.9 336.9 0 00-7.06-2.52c-.2-.03-.27.06-.27.06s-.06.1.12.25c.34.27 6.75 5.03 8.16 5.95-.31 1.1-.31 1.63 0 2.15.42.7.45 1.07.4 1.6-.07.52-.62 5.03-.74 5.58-.12.55-1.4 2.52-1.34 3.1.06.58.85 3.07 1.55 3.35.52.18 1.8.58 2.66.58.3 0 .58-.06.7-.18.52-.47.67-.56 1.04-.56h.1c.14 0 .33.03.54.03.5 0 1.13-.09 1.59-.52.67-.67 1.83-1.6 2.2-2.02.46-.59.7-1.39.58-2.18-.1-.74.3-1.38.76-2.03l1.65-2.15A8.41 8.41 0 0131.4 36c0 4.8-4.15 8.66-9.28 8.66-.8 0-1.56-.1-2.32-.28 2.35.83 4.33 1.1 5.95 1.1 3.45 0 5.29-1.25 5.29-1.25s-.65.83-1.68 1.78h.03c5.7-.8 8.49-5.52 8.49-5.52s-.22 1.53-.5 2.57c7.61-5.74 6.33-12.92 6.3-13.16.06.09.82 1 1.22 1.5 1.22-12.64-9.07-16.73-9.07-16.73zm-11.7 20.2c-.12.15-.64.61-1 .95-.37.34-.77.68-1.07.98-.13.13-.37.19-.74.19h-.91c.46-.62 1.8-2.03 2.26-2.34.55-.36.82-.73.49-1.38-.34-.64-1.23-.49-1.23-.49s.52-.21.98-.21c-.58-.16-1.31 0-1.65.33-.36.34-.3 1.54-.46 2.3-.15.8-.67 1.2-1.46 1.94-.43.4-.73.52-.98.52-.52-.09-1.13-.24-1.56-.4-.3-.4-.76-1.72-.88-2.27.1-.3.46-.95.64-1.32.37-.7.58-1.1.64-1.47.12-.52.52-3.75.67-5.1.4.53.95 1.38.83 1.94.88-1.26.24-2.49-.06-2.98a3.38 3.38 0 01-.34-2.52c.3-1.04 1.4-3.93 1.4-3.93s.37.65.9.53c.51-.13 4.7-6.45 4.7-6.45s1.12 2.49-.07 4.3c-1.22 1.8-2.41 2.15-2.41 2.15s1.68.3 3.24-.83c.64 1.5 1.25 3.07 1.28 3.28-.1.22-1.31 3.16-1.44 3.35-.06.06-.48.18-.79.24-.52.16-.82.25-.95.34-.21.18-1.19 2.89-1.64 4.2-.55.16-1.1.47-1.5 1.08.21-.15.88-.25 1.37-.3.43-.04 1.74.67 2.08 1.99v.06c.06.49-.1.95-.34 1.32zm-2.87.37c.28-.4.25-1.08.28-1.3.03-.2.09-.6.33-.67.25-.06.83.03.83.46 0 .4-.43.5-.73.77l-.7.74zm12.19-5.87c.3-1.56.33-2.91.24-4.02 1.2 1.6 1.93 3.53 2.14 5.53.03.24.27.49.52.74.21.18.46.43.46.58 0 .7-.06 1.41-.19 2.12-.03.09-.3.24-.52.36-.3.16-.58.31-.64.56a11.43 11.43 0 01-4.03 5.92c2.84-2.98 4.22-7.89 2.02-11.79zm-1.93 12.07a11.81 11.81 0 004.19-6.11c.03-.1.3-.25.49-.37.3-.15.6-.34.67-.58a13 13 0 00.18-2.18c0-.28-.27-.55-.55-.83-.15-.18-.4-.4-.4-.55a12.02 12.02 0 00-2.5-6.11c-.61-3.68-3.05-4.82-3.11-4.85.06.1 1.64 2.4.55 5.1-1.13 2.73-4.04 2.3-4.28 2.33-.24 0-1.2 1.23-2.38 3.5-.15-.06-.8-.22-1.53-.1a44.54 44.54 0 011.53-3.9c.06-.05.52-.18.82-.27.58-.15.86-.25.95-.37.06-.09.37-.8.67-1.53.28 0 .98-.06 1.04-.1.06-.06.64-1.56.64-1.74 0-.16-1.19-3.13-1.65-4.27.22-.25.43-.55.64-.89a12.57 12.57 0 114.03 23.82z" fill="#1B314F"/><path d="M23.4 24.85c.58-.67.28-1.93-.8-2.15.28-.64.68-1.93.68-1.93s-3.12 4.91-3.4 5c-.27.1-.54-.98-.54-.98-.58 2.24.98 2.55 1.16 1.84a7.67 7.67 0 002.9-1.78z" fill="#1B314F"/><path d="M20.74 26.05l1.6-2.73s.9.46.45 1.2a5.97 5.97 0 01-2.05 1.53z" fill="#FFD923"/><path d="M40.38 38.7c-.46.6-.98 1.25-1.59 1.87 3.94-7.61.18-14.58.03-14.86.28.28.55.59.8.86a9.75 9.75 0 01.76 12.13zm3.66-9.8a18.42 18.42 0 00-7.63-9.72 15.49 15.49 0 00-8.86-2.52h-.06c.16-.06.3-.1.46-.12.95-.31 2.17-.56 3.39-.71 3.24-.46 6.5.64 8.73 3l.07.07a14.5 14.5 0 013.9 10zm-8.61-15.19c-4.55-.86-7.48-.43-9.59.37a8.82 8.82 0 00-.45-1.14c-.65.77-1.32 1.7-1.75 2.28-1.16.8-1.64 1.56-1.64 1.56a6.38 6.38 0 015-4.45c.68-.12 1.4-.18 2.2-.18 2.11.03 4.22.55 6.23 1.56zM18.6 19.6c-3.57-.12-2.38-4.3-2.31-4.54 0 .03.24 3.29 2.32 4.54zm3.52-7.51c-2.75 1.65-2.2 5.61-2.2 5.61-2.63-4.02 1.98-5.52 2.2-5.61z" fill="#D82122"/><path d="M17.6 20.71c.18.15.36.43.15.83-.12.21-.3.18-.58.06a72.5 72.5 0 01-4.55-2.8 94.6 94.6 0 014.92 1.85l.06.06z" fill="#fff"/></svg>