<!-- by TradingView --><svg xmlns="http://www.w3.org/2000/svg" width="56" height="56"><path fill="url(#ajgg1omcx)" d="M0 0h56v56H0z"/><ellipse cx="28" cy="28" rx="13" ry="20" fill="#E21C2A"/><ellipse cx="28" cy="28" rx="11.62" ry="18.45" fill="#1F211D"/><path d="M38.03 33.14c-1.93 3.4-5.7 5.7-10.03 5.7-4.33 0-8.1-2.3-10.02-5.7 1.3 7.2 5.3 12.45 10.02 12.45s8.72-5.24 10.03-12.45zm-.01-10.33A11.48 11.48 0 0028 17.13c-4.32 0-8.08 2.3-10.01 5.68 1.32-7.18 5.3-12.4 10.01-12.4s8.7 5.22 10.02 12.4z" fill="#fff"/><path d="M35 20.22a10.9 10.9 0 00-3-1.72v8.2h-3V29h3v8.5c1.1-.42 2.11-1 3-1.72V29h3.73a9.83 9.83 0 00-.03-2.3H35v-6.48zM38.58 26a10.07 10.07 0 00-3.08-5.35V26h3.08zm0 4H35.5v5.35A10.07 10.07 0 0038.58 30zm-7.08 7.68v-8.1H29v8.6c.87-.07 1.7-.24 2.5-.5zm-4.5.5V17.82c-.69.06-1.36.19-2 .36v19.66c.64.17 1.31.3 2 .36zm-4-1.12V18.93c-.72.36-1.4.8-2 1.3v15.55c.6.5 1.28.93 2 1.28zm-4-3.42V22.36a9.81 9.81 0 000 11.28zM29 17.8V26h2.5v-7.69c-.8-.26-1.63-.43-2.5-.5z" fill="#E21C2A"/><path d="M31.5 18.32c-.8-.25-1.63-.43-2.5-.5V26h2.5v-7.68zm0 11.25H29v8.61c.87-.07 1.7-.25 2.5-.5v-8.1zm4 5.78a10.04 10.04 0 003.16-5.78H35.5v5.78zm0-9.35h3.08a10.07 10.07 0 00-3.08-5.35V26z" fill="#fff"/><path fill-rule="evenodd" d="M20.74 18.84l2.88-5.7.91-.56 1.26 3.95-.72.16-.27-.9-2.18.83L21.9 18l-1.16.84zm3.38-5.18l.48 1.46-1.53.6 1.05-2.06z" fill="#1F211D"/><path d="M30.07 12.28l-.53.49a1.8 1.8 0 00-1.32-.57c-.99 0-1.78.77-1.78 1.71 0 .95.8 1.72 1.78 1.72.52 0 .99-.22 1.31-.56l.55.47c-.46.5-1.13.8-1.88.8a2.48 2.48 0 01-2.53-2.43 2.48 2.48 0 012.53-2.42c.74 0 1.41.3 1.87.79zm1.44.32l-1.26 3.9.7.17.73-2.28.56 2.7.37.14.76-1.78.8 2.58.91.65-1.4-4.51-.43-.31-.6 1.46-.54-2.35-.6-.38zM22.8 39.07c.33 0 .62-.14.8-.34l.64.22-1.11 3.1-.71-.25.74-2.06c-.5.03-.7-.03-.9-.15l.2-.57c.1.03.22.05.35.05z" fill="#1F211D"/><path fill-rule="evenodd" d="M26.65 41.02c.28-.13.48-.34.52-.61.07-.5-.4-.98-1.06-1.07-.66-.1-1.26.22-1.34.72-.04.26.08.52.3.71-.4.15-.68.46-.72.83-.05.58.5 1.11 1.24 1.19.74.07 1.39-.35 1.45-.93a.98.98 0 00-.39-.84zm-.19-.64c-.03.24-.29.4-.57.35-.27-.04-.47-.26-.43-.5.03-.23.29-.4.56-.35.28.04.48.26.44.5zm-.85 1.85c.33.06.63-.13.68-.42.05-.28-.17-.56-.5-.62-.32-.05-.63.14-.68.42-.05.29.18.57.5.62z" fill="#1F211D"/><path d="M27.72 40.6c0-.6.51-1.1 1.15-1.12l.05-.01c.73-.08 1.38.44 1.46 1.17l.03.23.02.65a1.3 1.3 0 01-1.07 1.32l-.2.04c-.5.06-.96-.2-1.2-.6l.56-.21.02.03c.09.1.21.26.52.26.34 0 .65-.26.65-.74v-.18c-.21.17-.5.28-.8.28-.76 0-1.2-.5-1.2-1.12zm1.31.6a.6.6 0 00.61-.6.6.6 0 00-.6-.59.6.6 0 00-.61.6c0 .32.22.58.6.58zm1.85-.88c-.14-.59.24-1.18.85-1.35l.05-.02c.68-.24 1.44.1 1.7.79l.1.3.16.57a1.3 1.3 0 01-.73 1.53l-.2.08c-.46.14-.94 0-1.27-.32l.47-.32.03.02c.1.08.27.2.56.14.33-.08.57-.4.45-.88l-.04-.17c-.16.22-.4.38-.7.45-.74.18-1.28-.21-1.43-.82zm1.42.28a.6.6 0 00.45-.7.6.6 0 00-.73-.44.6.6 0 00-.45.7c.08.33.35.53.73.44z" fill="#1F211D"/><defs><linearGradient id="ajgg1omcx" x1="10.42" y1="9.71" x2="68.15" y2="76.02" gradientUnits="userSpaceOnUse"><stop stop-color="#1A1E21"/><stop offset="1" stop-color="#06060A"/></linearGradient></defs></svg>