<!-- by TradingView --><svg width="56" height="56" viewBox="0 0 56 56" xmlns="http://www.w3.org/2000/svg"><path fill="url(#aiudvf5ik)" d="M0 0h56v56H0z"/><path d="M33.91 23c-.31 0-.62-.43-.85-.65l-1.15-1.29a.93.93 0 0 0-1.28-.08l-.09.08-.97 1.11c-.31.37-.8.83-1.28.83H12.83a17.17 17.17 0 0 0-.83 4h14.63c.26 0 .51-.43.68-.6l1.38-1.43c.17-.17.4-.28.65-.28h.06c.26 0 .51.1.69.3l1.14 1.3c.23.25.54.71.86.71H44c-.11-1.34-.4-2.74-.83-4h-9.26Zm-6.54 7.6-1.14-1.3a.93.93 0 0 0-1.29-.08l-.08.09-1 1.11c-.32.37-.77.58-1.26.58H12.23c.26 1.37.71 2.72 1.31 4h7.29c.26 0 .48-.13.68-.3l1.38-1.43c.17-.17.4-.28.65-.28h.06c.26 0 .51.11.69.31l1.14 1.29c.23.25.54.41.86.41h16.17c.6-1.26 1.05-2.6 1.31-4H28.23c-.34 0-.66-.15-.86-.4Zm5.6-12.87 1.37-1c.17-.18.4-.3.66-.3h.06a1 1 0 0 1 .68.3l1.15.86c.22.26.54.41.85.41h2.76a14.8 14.8 0 0 0-12.21-6c-4.7.01-9.88 2.15-12.82 6H32.3c.28.06.51-.1.68-.27ZM21.91 39c-.34 0-.65-.22-.85-.45l-1.15-1.28a.9.9 0 0 0-1.28-.06l-.06.06-1 1.11c-.31.37-.77.57-1.26.57h-.05a16.08 16.08 0 0 0 22.71.69c.26-.23.49-.38.74-.64h-17.8Z" fill="#fff"/><defs><linearGradient id="aiudvf5ik" x1="10.42" y1="9.71" x2="68.15" y2="76.02" gradientUnits="userSpaceOnUse"><stop stop-color="#1A1E21"/><stop offset="1" stop-color="#06060A"/></linearGradient></defs></svg>