<!-- by TradingView --><svg width="56" height="56" xmlns="http://www.w3.org/2000/svg"><path d="M0 28C0 12.536 12.536 0 28 0s28 12.536 28 28-12.536 28-28 28S0 43.464 0 28z" fill="#2075E8"/><path d="M30.073 12.5l10.458 5.372A4.527 4.527 0 0143 21.92V24H39v-2.08c0-.254-.004-.498-.23-.613L28.3 16.088a.696.696 0 00-.627 0l-10.444 5.22c-.225.114-.23.358-.229.611V24h-4v-2.08a4.535 4.535 0 012.469-4.048l10.458-5.371a4.544 4.544 0 014.146 0zM31 28c-.006-1.742-1.28-3.01-3-3-1.72.01-2.981 1.282-3 3-.019 1.718 1.179 2.984 3 3 1.821.016 3.006-1.258 3-3zm7.772 6.693c.225-.115.228-.358.228-.611V32h4v2.082a4.534 4.534 0 01-2.467 4.045l-10.458 5.372c-.642.329-1.353.5-2.074.501-.721 0-1.432-.172-2.074-.5L15.47 38.127A4.526 4.526 0 0113 34.082V32h4v2.082c0 .259 0 .493.23.611L26 39v-4.5c-3.012-.846-5-3.219-5-6.5 0-3.95 2.783-7 7-7 4.217 0 7 3 7 7 0 3.366-1.987 5.655-5 6.5V39l8.772-4.307z" fill="#fff"/></svg>