<!-- by TradingView --><svg width="56" height="56" viewBox="0 0 56 56" xmlns="http://www.w3.org/2000/svg"><path fill="#213147" d="M0 0h56v56H0z"/><path d="m30.68 30.74-1.75 4.77a.57.57 0 0 0 0 .42l3 8.22 3.49-2-4.18-11.41a.3.3 0 0 0-.56 0ZM34.18 22.7a.3.3 0 0 0-.56 0l-1.75 4.77a.57.57 0 0 0 0 .42l4.93 13.46 3.48-2-6.1-16.66Z" fill="#12AAFF"/><path d="M28 12.01c.09 0 .17.02.25.07l13.5 7.85a.5.5 0 0 1 .25.43v15.27a.5.5 0 0 1-.25.43l-13.5 7.88a.51.51 0 0 1-.5 0l-13.5-7.87a.5.5 0 0 1-.25-.43V20.36c0-.18.1-.34.25-.43l13.5-7.85A.49.49 0 0 1 28 12ZM28 10c-.47 0-.95.13-1.37.37L13.37 18A2.73 2.73 0 0 0 12 20.36v15.27c0 .97.52 1.88 1.37 2.37l13.26 7.63a2.74 2.74 0 0 0 2.74 0L42.63 38A2.71 2.71 0 0 0 44 35.63V20.36c0-.97-.52-1.88-1.37-2.36l-13.26-7.63c-.42-.24-.9-.37-1.37-.37Z" fill="#9DCCED"/><path d="m19.23 41.37 1.22-3.33 2.45 2.03-2.29 2.1-1.38-.8Z" fill="#213147"/><path d="M26.89 19h-3.37a.6.6 0 0 0-.56.41l-7.2 19.93 3.47 2.03 7.94-21.95c.07-.2-.07-.42-.29-.42ZM32.77 19h-3.36a.6.6 0 0 0-.56.4l-8.24 22.74 3.48 2.03 8.96-24.76a.3.3 0 0 0-.28-.41Z" fill="#fff"/></svg>