<!-- by TradingView --><svg xmlns="http://www.w3.org/2000/svg" width="56" height="56"><path fill="#F0F3FA" d="M0 0h56v56H0z"/><path d="M15.27 36.64L28 46.38l12.73-9.74c.49-.37.77-.95.77-1.55V12.44c-1-1.47-6.4-2.95-13.5-2.95-7.6 0-12.5 1.48-13.5 2.95V35.1c0 .6.28 1.18.77 1.55z" fill="#2C305F"/><path d="M22 42.23l-4-3.09v-6l3.97-3H22v12.1zm8 3.1l-2 1.54-2-1.55V27.11l4-3.02v21.23zm8-6.19l-4 3.1V21.06l4-3.02v21.1z" fill="#fff"/><path d="M30 24.09l4-3.02v21.16l-4 3.1V24.08zm-8 6.04l4-3.02v18.21l-4-3.09v-12.1zm-7 5.28l3-2.27v6l-3-2.32v-1.41zm23 3.73V18.05l3-2.26v21.03l-3 2.32z" fill="#CB3522"/><path d="M15 12.6v22.5c0 .45.21.88.58 1.16L28 45.75l12.42-9.5c.37-.28.58-.7.58-1.16V12.6c-.2-.23-.6-.51-1.24-.8-.72-.33-1.68-.65-2.84-.92-2.32-.54-5.4-.9-8.92-.9-3.77 0-6.85.36-9.1.9-1.13.27-2.04.59-2.72.91-.6.29-.97.57-1.18.8zm3.66-2.66C21 9.37 24.17 9 28 9c3.58 0 6.75.37 9.15.94 1.2.28 2.23.6 3.03.97.78.36 1.4.77 1.74 1.26l.08.12v22.8c0 .76-.36 1.47-.97 1.94L28 47l-13.03-9.97a2.44 2.44 0 01-.97-1.94v-22.8l.08-.12c.33-.48.92-.9 1.66-1.25.76-.37 1.74-.7 2.92-.98z" fill="#2C305F"/><path d="M27.7 10.44l.33 1.02h1.1l-.89.63.34 1.02-.88-.63-.88.63.33-1.02-.88-.63h1.09l.34-1.02zm11.37 1.51l.34 1.02h1.09l-.88.63.34 1.02-.89-.63-.88.63.34-1.02-.88-.63h1.09l.33-1.02zm-7.14 6.68l.33 1.02h1.1l-.89.63.34 1.02-.88-.64-.89.64.34-1.02-.88-.63h1.09l.34-1.02zm-7.96 5.58l.34 1.02h1.09l-.88.63.33 1.02-.88-.63-.88.63.34-1.02-.89-.63h1.1l.33-1.02zm-8 5.91l.34 1.02h1.09l-.88.63.33 1.02-.88-.63-.88.63.34-1.02-.89-.63h1.1l.33-1.02zm0-9.84l.34 1.02h1.09l-.88.63.33 1.02-.88-.63-.88.63.34-1.02-.89-.63h1.1l.33-1.02zm-.04-7.87l.33 1.02h1.1l-.89.63.34 1.02-.88-.63-.89.63.34-1.02-.88-.63h1.09l.34-1.02zm2.07 2v13.28l1-.77v-2.18c0-.22-.1-.42-.24-.58-.2-.24-.25-.62-.05-.86A6.61 6.61 0 0020 20.67c.26-1.11.34-2.3 0-3.3-.25-.76.5-.5.5-.5.17-.17.5-.5 1-.5l1-.48c.17.16.34.54-.09 1.39-.4.78.14 1.33.59 1.56.35.17 1.07-.83 1.37-1.28l.03-.05c.06-.08.1-.16.19-.23.16-.15.38-.31.71-.31-.3 1.67-1.1 4.33-2.3 4.33h.5c0 .49-.3 2.16-1.5 2.95v.38l5-3.83v-4.42c-1 .16-3.1.2-3.5-.99-.67.17-2.5.5-3-1.47l-2.5.49zm18-.49l-7 5.4V15.9c1.2.78 2.5 0 2.5-.5 1.6.4 2.67-.82 3-1.47H36z" fill="#F0F3FA"/></svg>