<!-- by TradingView --><svg width="56" height="56" xmlns="http://www.w3.org/2000/svg"><path fill="url(#paint0_linear)" d="M0 0h56v56H0z"/><path d="M28 40.66a12.66 12.66 0 100-25.32 12.66 12.66 0 000 25.32z" fill="#2C3154"/><path d="M28 8.56c-.402 0-.973.348-1.592 1.574-.59 1.17-1.099 2.854-1.5 4.86-.79 3.986-1.155 8.978-1.155 13.006v.002a71.182 71.182 0 001.155 13.005c.415 2 .91 3.69 1.51 4.855l.003.004c.621 1.23 1.18 1.574 1.58 1.574.401 0 .972-.348 1.591-1.574.59-1.17 1.099-2.853 1.5-4.86.79-3.986 1.156-8.978 1.156-13.006 0-4.016-.353-9.02-1.155-13.003-.415-2-.91-3.693-1.512-4.86l-.002-.003C28.958 8.904 28.4 8.56 28 8.56zm-2.485 1.123c.647-1.28 1.47-2.123 2.485-2.123 1.018 0 1.827.846 2.471 2.122.665 1.29 1.181 3.09 1.601 5.113l.001.003c.819 4.068 1.175 9.142 1.175 13.202 0 4.074-.37 9.134-1.175 13.2v.001c-.409 2.044-.939 3.83-1.588 5.116-.647 1.28-1.469 2.123-2.485 2.123-1.018 0-1.826-.846-2.471-2.122-.664-1.29-1.181-3.09-1.601-5.113l-.003-.012a72.177 72.177 0 01-1.172-13.194c0-4.074.368-9.133 1.174-13.2.409-2.044.939-3.83 1.588-5.116" fill="#A3A9D0"/><path d="M11.165 18.274c-.201.354-.176 1.017.563 2.166a19.828 19.828 0 003.45 3.72l.005.003a71.177 71.177 0 0010.686 7.518l.002.001a71.202 71.202 0 0011.855 5.494l.005.002c1.596.587 3.26.968 4.952 1.135 1.374.06 1.952-.247 2.152-.587.201-.354.176-1.017-.563-2.166a19.827 19.827 0 00-3.451-3.72l-.004-.003a71.191 71.191 0 00-10.686-7.518l-.002-.001a71.181 71.181 0 00-11.851-5.492c-1.932-.653-3.64-1.066-4.95-1.138-1.382-.062-1.963.245-2.163.586zm34.103 19.702l.432.252c-.51.873-1.65 1.147-3.075 1.083h-.013l-.013-.002a21.007 21.007 0 01-5.21-1.192 72.19 72.19 0 01-12.019-5.57 72.175 72.175 0 01-10.833-7.62 20.827 20.827 0 01-3.63-3.916L10.9 21l-.006-.01c-.773-1.198-1.103-2.329-.597-3.215l.003-.004c.51-.873 1.65-1.147 3.075-1.083h.005c1.447.08 3.257.527 5.222 1.19l.007.003a72.173 72.173 0 0112.021 5.57 72.174 72.174 0 0110.833 7.622 20.832 20.832 0 013.63 3.915l.007.01.006.01c.773 1.198 1.103 2.329.596 3.215l-.434-.248z" fill="#A3A9D0"/><path d="M42.683 17.687a20.006 20.006 0 00-4.952 1.135l-.005.002a71.186 71.186 0 00-11.855 5.494l-.002.001a71.187 71.187 0 00-10.683 7.516c-1.527 1.34-2.73 2.62-3.453 3.718-.744 1.153-.77 1.819-.568 2.173.2.34.79.647 2.152.587a20.008 20.008 0 004.952-1.135l.005-.002a71.178 71.178 0 0011.855-5.494l.002-.001a71.187 71.187 0 0010.683-7.515c1.528-1.34 2.73-2.621 3.453-3.719.743-1.153.77-1.818.568-2.173-.2-.34-.79-.647-2.152-.587zm-31.951 20.29l-.434.247c-.507-.886-.177-2.017.596-3.215l.003-.005c.794-1.205 2.073-2.556 3.632-3.924l.006-.005a72.185 72.185 0 0110.835-7.622 72.183 72.183 0 0112.018-5.57A21.013 21.013 0 0142.6 16.69l.013-.002h.013c1.411-.064 2.565.21 3.075 1.083l.002.004c.507.886.177 2.017-.596 3.216l-.003.004c-.795 1.205-2.073 2.556-3.632 3.924l-.006.005a72.178 72.178 0 01-10.835 7.623 72.182 72.182 0 01-12.018 5.57 21.007 21.007 0 01-5.211 1.191l-.013.002h-.013c-1.412.064-2.566-.209-3.075-1.083l.432-.252z" fill="#A3A9D0"/><path d="M28 30.532a2.532 2.532 0 100-5.064 2.532 2.532 0 000 5.064zM13.441 25.468a1.899 1.899 0 100-3.798 1.899 1.899 0 000 3.798zM24.835 43.192a1.9 1.9 0 100-3.798 1.9 1.9 0 000 3.798zM37.495 20.404a1.899 1.899 0 100-3.798 1.899 1.899 0 000 3.798z" fill="#F0F3FA"/><defs><linearGradient id="paint0_linear" x1="10.418" y1="9.712" x2="68.147" y2="76.017" gradientUnits="userSpaceOnUse"><stop stop-color="#1A1E21"/><stop offset="1" stop-color="#06060A"/></linearGradient></defs></svg>