<!-- by TradingView --><svg width="56" height="56" viewBox="0 0 56 56" xmlns="http://www.w3.org/2000/svg"><path fill="#E84142" d="M0 0h56v56H0z"/><path d="M20.03 39h-5.38c-1.13 0-1.69 0-2.03-.21-.37-.24-.6-.63-.62-1.06-.02-.4.26-.88.82-1.85L26.1 12.8c.57-.98.86-1.47 1.22-1.65.38-.2.85-.2 1.24 0 .36.18.64.67 1.2 1.65l2.74 4.7.01.02a8.76 8.76 0 0 1 1.06 2.15c.15.6.15 1.25 0 1.86a8.8 8.8 0 0 1-1.06 2.17l-6.98 12.16-.02.04a8.72 8.72 0 0 1-1.36 2c-.47.44-1.03.76-1.65.95-.57.15-1.2.15-2.47.15Zm13.59 0h7.7c1.15 0 1.72 0 2.06-.22.37-.24.6-.63.62-1.06.02-.39-.25-.85-.79-1.76l-.06-.1-3.86-6.5-.04-.08c-.54-.9-.82-1.36-1.17-1.54-.39-.2-.84-.2-1.23 0-.36.18-.64.66-1.2 1.62l-3.86 6.51v.02c-.57.96-.85 1.44-.83 1.83.02.43.25.83.62 1.07.33.21.9.21 2.04.21Z" fill="#fff"/></svg>