<!-- by TradingView --><svg width="56" height="56" viewBox="0 0 56 56" fill="none" xmlns="http://www.w3.org/2000/svg">
<rect width="56" height="56" fill="#3D3DC1"/>
<path fill-rule="evenodd" clip-rule="evenodd" d="M31 19H37V22H31V29.3573V37.5102C30.9078 41.3255 28.0147 45 23.6562 45C19.2977 45 16 41.8705 16 37.5102C16 33.1499 19.5513 30 23.5639 30C26.4466 30 28 31.2952 28 31.2952V22H26V19H28V16.8441C28 12.8926 31.566 11.1894 33.2033 11.0985C34.7023 10.967 36.501 10.9156 38 11.2802V14.5567C35.9841 13.9089 35.3155 13.9725 34.3591 14.0636C34.2762 14.0715 34.1911 14.0796 34.1027 14.0875C32.8344 14.2004 31 15.5409 31 17.335V19ZM28 37.5C28 39.9853 25.9853 42 23.5 42C21.0147 42 19 39.9853 19 37.5C19 35.0147 21.0147 33 23.5 33C25.9853 33 28 35.0147 28 37.5Z" fill="white"/>
</svg>
