<!-- by TradingView --><svg width="56" height="56" viewBox="0 0 56 56" xmlns="http://www.w3.org/2000/svg"><path fill="url(#aq32f3njl)" d="M0 0h56v56H0z"/><path fill-rule="evenodd" d="M25.23 13H14v14h11.23A5.1 5.1 0 0 0 28 22.7c0-1.26-.77-2.37-1.15-2.77.92-.58 1.15-2.04 1.15-2.7 0-2.06-1.15-3.5-2.77-4.23ZM17 16h6.5a1.5 1.5 0 0 1 0 3H17v-3Zm6.5 5H17v3h6.5a1.5 1.5 0 0 0 0-3Z" fill="#FD6E26"/><path d="M30 23.96V13h3v9.64L34.2 24H43v3H32.89L30 23.96ZM14 39.89V29h3v9.66L18.3 40h5.54L25 38.66V29h3v10.89L25.24 43h-8.35L14 39.89ZM30 29h10.45c1.15.45 2.55 2.39 2.55 3.89 0 1.78-.88 2.58-1.33 2.98l-.07.07c.47.3 1.4 1.24 1.4 2.59V43h-3v-4.15c-.06-.47-.64-1.7-1.62-1.85H33v6h-3V29Zm8 2h-5v4h5a2 2 0 1 0 0-4Z" fill="#FD6E26"/><defs><linearGradient id="aq32f3njl" x1="10.42" y1="9.71" x2="68.15" y2="76.02" gradientUnits="userSpaceOnUse"><stop stop-color="#1A1E21"/><stop offset="1" stop-color="#06060A"/></linearGradient></defs></svg>