<!-- by TradingView --><svg width="56" height="56" viewBox="0 0 56 56" xmlns="http://www.w3.org/2000/svg"><path fill="#58BE92" d="M0 0h56v56H0z"/><path d="M37.28 18.23c-1.37-3.51-4.84-3.83-8.89-3.03l-1.43-5.05-3.07.89 1.41 4.87-2.44.74-1.41-4.93-3.04.89 1.43 5-1.95.6v-.01l-4.21 1.2.93 3.26s2.25-.7 2.23-.64c1.23-.36 1.84.25 2.14.84l1.64 5.71.33-.05-.33.09 2.3 8.02c.06.4 0 1.08-.85 1.33.04.02-2.23.65-2.23.65l.44 3.82 3.97-1.14 2.2-.61 1.46 5.07 3.03-.88-1.42-5.01 2.44-.68 1.43 5 3.07-.88L35 38.23c5.05-1.77 8.28-4.1 7.35-9.05-.76-3.98-3.09-5.2-6.2-5.05 1.5-1.43 2.15-3.32 1.15-5.9h-.02Zm-1.14 12.1c1.07 3.8-5.54 5.22-7.6 5.83l-1.93-6.73c2.07-.6 8.39-3.05 9.53.9ZM32 21.22c.98 3.47-4.56 4.61-6.29 5.11l-1.75-6.1c1.73-.49 7-2.6 8.04 1.01v-.02Z" fill="#fff"/></svg>