<!-- by TradingView --><svg width="56" height="56" viewBox="0 0 56 56" fill="none" xmlns="http://www.w3.org/2000/svg">
<rect width="56" height="56" fill="#F9F3EB"/>
<path fill-rule="evenodd" clip-rule="evenodd" d="M24 17V19H22V17C22 16.7348 22.1054 16.4804 22.2929 16.2929C22.4804 16.1054 22.7348 16 23 16C23.2652 16 23.5196 16.1054 23.7071 16.2929C23.8946 16.4804 24 16.7348 24 17ZM30 19H26V17C26 16.2044 25.6839 15.4413 25.1213 14.8787C24.5587 14.3161 23.7956 14 23 14C22.2044 14 21.4413 14.3161 20.8787 14.8787C20.3161 15.4413 20 16.2044 20 17V19H15.5C14.67 19 14 19.67 14 20.5V20.55C14.0005 20.6703 14.0072 20.7904 14.02 20.91C14.139 22.1705 14.5873 23.3775 15.32 24.41C16.0148 25.3545 16.926 26.0994 18 26.57V35.5C18 37.4891 18.8102 39.3968 20.2167 40.8033C21.6232 42.2098 23.5309 43 25.52 43H30.5C32.4891 43 34.3968 42.2098 35.8033 40.8033C37.2098 39.3968 38 37.4891 38 35.5V26.46L38.42 26.23C39.08 25.83 40.02 25.22 40.66 24.46C41.34 23.63 41.65 22.61 41.8 21.91C41.8975 21.482 41.9643 21.0475 42 20.61V20.58V20.57C42.0095 20.3672 41.9777 20.1646 41.9066 19.9745C41.8354 19.7843 41.7264 19.6106 41.5862 19.4638C41.446 19.317 41.2774 19.2002 41.0907 19.1205C40.904 19.0408 40.703 18.9998 40.5 19H36V17C36 16.2044 35.6839 15.4413 35.1213 14.8787C34.5587 14.3161 33.7956 14 33 14C32.2044 14 31.4413 14.3161 30.8787 14.8787C30.3161 15.4413 30 16.2044 30 17V19ZM32 19V17C32 16.7348 32.1054 16.4804 32.2929 16.2929C32.4804 16.1054 32.7348 16 33 16C33.2652 16 33.5196 16.1054 33.7071 16.2929C33.8946 16.4804 34 16.7348 34 17V19H32ZM24 22H27C27.02 24.78 27.22 28.33 29 31C29.6705 32.0365 30.5509 32.9209 31.5844 33.5961C32.6179 34.2713 33.7814 34.7223 35 34.92V35.5C35 36.0909 34.8836 36.6761 34.6575 37.2221C34.4313 37.768 34.0998 38.2641 33.682 38.682C33.2641 39.0998 32.768 39.4313 32.2221 39.6575C31.6761 39.8836 31.0909 40 30.5 40H25.52C24.9291 40 24.3439 39.8836 23.7979 39.6575C23.252 39.4313 22.7559 39.0998 22.338 38.682C21.9202 38.2641 21.5887 37.768 21.3625 37.2221C21.1364 36.6761 21 36.0909 21 35.5V25.54C21.0009 25.2111 20.9138 24.8911 20.715 24.6291C20.5163 24.3671 20.2369 24.1777 19.92 24.09L17.37 22H24ZM19.91 24.09C19.8418 24.0714 19.7749 24.048 19.71 24.02C19.5016 23.9457 19.2979 23.8588 19.1 23.76C18.5747 23.5103 18.1156 23.1403 17.76 22.68C17.6079 22.4667 17.4773 22.2389 17.37 22L19.91 24.09ZM26 29.5C26 29.8978 25.842 30.2794 25.5607 30.5607C25.2794 30.842 24.8978 31 24.5 31C24.1022 31 23.7206 30.842 23.4393 30.5607C23.158 30.2794 23 29.8978 23 29.5C23 29.1022 23.158 28.7206 23.4393 28.4393C23.7206 28.158 24.1022 28 24.5 28C24.8978 28 25.2794 28.158 25.5607 28.4393C25.842 28.7206 26 29.1022 26 29.5ZM31.5 31C31.8978 31 32.2794 30.842 32.5607 30.5607C32.842 30.2794 33 29.8978 33 29.5C33 29.1022 32.842 28.7206 32.5607 28.4393C32.2794 28.158 31.8978 28 31.5 28C31.1022 28 30.7206 28.158 30.4393 28.4393C30.158 28.7206 30 29.1022 30 29.5C30 29.8978 30.158 30.2794 30.4393 30.5607C30.7206 30.842 31.1022 31 31.5 31Z" fill="black"/>
</svg>
