<!-- by TradingView --><svg xmlns="http://www.w3.org/2000/svg" width="56" height="56"><path fill="#37CBD4" d="M0 0h56v56H0z"/><path d="M43.5 34.12c0 5.17-6.93 9.4-15.45 9.4s-15.45-4.23-15.45-9.4v-2.43h31v2.43h-.1z" fill="#FBD984"/><path d="M18.57 16.18a3.06 3.06 0 012.98-3.7c1.7 0 3.61 1.38 3.61 3.07v6.96c1.07-.1 1.61-.2 2.78-.2 1.07 0 1.62-.11 2.68 0l.27-7.13c0-1.69 1.63-2.7 3.34-2.7 1.91 0 3.4 1.8 3.09 3.7l-.94 7.6c4.48 1.69 7.11 4.64 7.11 8.02 0 5.17-6.92 9.39-15.44 9.39s-15.45-4.22-15.45-9.4c0-3.37 2.36-6.32 6.84-8.01l-.87-7.6z" fill="#CA7D45"/><path d="M24 31.5c0 1.35-.66 2.5-1.5 2.5S21 32.85 21 31.5s.66-2.5 1.5-2.5 1.5 1.15 1.5 2.5zm11 0c0 1.35-.66 2.5-1.5 2.5S32 32.85 32 31.5s.66-2.5 1.5-2.5 1.5 1.15 1.5 2.5z" fill="#522D0B"/><path d="M18 17c-.5-2.6 1.27-5 3.9-5 2.31 0 4.1 1.9 4.1 4.2l-.33 5.28h2.28c.6 0 1.26 0 2.05.1V16.2c0-2.3 1.58-4.2 3.9-4.2 2.63 0 4.5 2.4 4.1 5l-1 6.1c3.94 1.7 7 4.7 7 8.4v2.3c0 3.1-2.02 5.7-4.95 7.4C36.13 43 32.3 44 27.95 44s-8.18-1-11.1-2.8C14.02 39.5 12 36.9 12 33.8v-2.3c0-3.7 3.06-6.8 7-8.5l-1-6zm18 7l1-7.07c.3-1.8-1.08-3.73-3-3.73a3 3 0 00-3.02 2.9v6.6c-.84-.13-2.09-.2-3.03-.2-1.05 0-2.28.1-3.13.2l.18-6.5c0-1.6-1.5-3.2-3.1-3.2-1.82 0-3.24 2-2.83 3.8L20 24c-4.24 1.6-7 4.4-7 7.6v2.3c0 4.9 6.92 9.1 15 9.1s15-4.2 15-9.1v-2.3c.1-3.3-2.66-6-7-7.6z" fill="#522D0B"/></svg>