<!-- by TradingView --><svg width="56" height="56" viewBox="0 0 56 56" xmlns="http://www.w3.org/2000/svg"><path fill="url(#ajqdjn5sc)" d="M0 0h56v56H0z"/><path d="M43 27c0 8.07-6.72 14.23-15 14.23-.78 0-1.55-.06-2.3-.17-3.13 2.82-8.42 3.04-10.82 2.91l2.24-7.3A14.37 14.37 0 0 1 13 26.63C13 18.54 19.72 12 28 12c7.3 0 13.37 5.07 14.72 11.79-1.66-.23-3.82-.94-4.4-2.66-.45 1-2.14 2.88-5.47 2.79.5-.82.77-1.77.77-2.79A5.55 5.55 0 0 0 28 15.65a5.55 5.55 0 0 0-5.63 5.48C22.38 24.16 24.9 27 28 27h15Z" fill="#68FFD8"/><path d="M37.94 27c-1.74 8.34-9.3 14.23-18.38 14.23-1.28 0-2.52-.12-3.73-.36l-.96 3.1c2.41.13 7.7-.1 10.82-2.91.76.11 1.53.17 2.31.17 8.28 0 15-6.16 15-14.23h-5.06ZM38.31 21.13c-.02.06.03-.05 0 0 .59 1.72 2.75 2.43 4.4 2.66a14.63 14.63 0 0 0-6.64-9.5c1.18 2.12 2 4.33 2.24 6.84Z" fill="#00D49E"/><defs><linearGradient id="ajqdjn5sc" x1="10.42" y1="9.71" x2="68.15" y2="76.02" gradientUnits="userSpaceOnUse"><stop stop-color="#1A1E21"/><stop offset="1" stop-color="#06060A"/></linearGradient></defs></svg>