<!-- by TradingView --><svg width="56" height="56" xmlns="http://www.w3.org/2000/svg"><path fill="#00D395" d="M0 0h56v56H0z"/><path d="M15.282 36.94A2.686 2.686 0 0114 34.652v-5.204c0-.2.053-.392.153-.563a1.113 1.113 0 011.526-.402l12.202 6.844A2.249 2.249 0 0129 37.258v5.393c0 .246-.079.491-.206.701a1.338 1.338 0 01-1.843.445L15.28 36.94zm17.476-9.883c.685.402 1.242 1.135 1.242 1.932V39.93c0 .324-.308.623-.589.78l-2.267 1.481c-.032.018-.108.032-.144.043v-6.077c0-.786-.371-1.515-1.046-1.92L19 27.954v-6.86c0-.198.07-.39.17-.561a1.113 1.113 0 011.526-.402l12.062 6.925zm5.13-8.083A2.235 2.235 0 0139 20.91v15.983c0 .328-.181.63-.469.786L36 38.996V27.868c0-.786-.313-1.512-.984-1.917L24 19.44v-6.317c0-.2.089-.392.185-.563a1.117 1.117 0 011.527-.405l12.177 6.818z" fill="#fff"/></svg>