<!-- by TradingView --><svg xmlns="http://www.w3.org/2000/svg" width="56" height="56" viewBox="0 0 56 56"><path fill="#F0F3FA" d="M0 0h56v56H0z"/><path d="M34 14.5c0 1.93-2.69 3.5-6 3.5s-6-1.57-6-3.5S24.7 11 28 11s6 1.57 6 3.5zm0 27c0 1.93-2.69 3.5-6 3.5s-6-1.57-6-3.5S24.7 38 28 38s6 1.57 6 3.5zM19.35 23.15c1.7-2.93 1.71-6.1.04-7.06-1.68-.97-4.4.63-6.1 3.56-1.7 2.93-1.7 6.1-.04 7.06 1.68.96 4.4-.63 6.1-3.56zm23.38 6.13c1.68.95 1.67 4.06-.02 6.94-1.7 2.88-4.43 4.44-6.1 3.49-1.69-.95-1.68-4.06.01-6.94 1.7-2.88 4.43-4.44 6.11-3.49zM19.4 39.73c1.68-.95 1.67-4.06-.03-6.94-1.69-2.88-4.42-4.44-6.1-3.49-1.69.96-1.68 4.06.02 6.94 1.69 2.88 4.42 4.45 6.1 3.5zm23.33-20.07c1.7 2.93 1.7 6.09.03 7.05-1.67.97-4.4-.62-6.1-3.56-1.68-2.93-1.7-6.09-.03-7.05 1.68-.97 4.4.62 6.1 3.56z" fill="#E6007A"/></svg>