<!-- by TradingView --><svg width="56" height="56" xmlns="http://www.w3.org/2000/svg"><path fill="#F0F3FA" d="M0 0h56v56H0z"/><path d="M45.929 28.306c-2.161 5.582-11.395 7.211-20.625 3.638-8.7-3.367-16.724-17.122-5.875-21.68 3.852-.866 8.776-.44 13.7 1.466 9.23 3.572 14.96 10.994 12.8 16.576z" fill="url(#paint0_linear)"/><path d="M35.256 13.892c-2.124-.39-2.264 2.343-1.973 3.87 5.66 2.235 7.555 5.562 7.695 5.772 2.586-2.201 5.218.258 5.453 2.137-.281-6.098-8.285-11.247-11.175-11.779z" fill="url(#paint1_linear)"/><path d="M13.963 38.226c-1.484-4.568-.122-8.59.745-10.03-.778-3.605-2.237-10.844-2.283-10.799-2.562 9.014-.246 17.753 1.286 20.976l.252-.147z" fill="url(#paint2_linear)"/><path d="M12.203 18.48c.214-1.722 1.294-3.793 1.981-4.75l12.266-3.704c12.569 2.084 9.637 7.185.31 6.307-2.873-.27-1.487 2.4-1.318 4.868.778 5.24-.405 5.85-2.231 8.554-.642-1.319-2.063-3.82-4.598-3.99-2.029-.135-4 2.434-4.429 3.38-.113-.101-.494-1.812-.71-2.515-1.125-2.346-1.654-5.062-1.27-8.15z" fill="url(#paint3_linear)"/><path d="M13.565 18.382c-.353-1.527-.147-2.892 0-3.383.352-1.34 2.111-4.186 6.332-4.85 4.221-.663 8-.104 9.362.633 1.294.869.735 3.51-1.896 2.765-3.831-1.106-4.424.355-4.108 2.37.853 4.456.355 7.44 0 8.374 0 0-1.146 2.884-2.094 1.976-1.62-1.62-3.12-1.304-4.78-.87-1.327.348-1.726-.592-1.76-1.106-.205-1.333-.702-4.381-1.056-5.909z" fill="url(#paint4_linear)"/><path d="M17.278 10.938c-3.01 1.434-1.922 7.039-.984 9.81 1.023-.64 4.155-.385 5.114.638-1.432-8.132 1.953-11.387 2.976-11.323 0 0-1.681-.18-2.85-.081-1.402.08-2.912.315-4.256.956z" fill="url(#paint5_linear)"/><path d="M41.117 23.418c-2.38 2.654-10.157 3.741-13.747 3.953.748 3.59.069 9.056-.364 11.34 4.627-1.462 14.256-4.462 15.751-4.767 1.869-.382 4.157-3.318 3.776-7.59-.381-4.271-3.89-4.538-5.416-2.936z" fill="url(#paint6_linear)"/><path d="M25.557 20.27c-.565.238 1.285 4.857 1.883 7.167 9.29-.695 12.385-2.999 12.423-2.999-5.209-4.316-13.599-4.466-14.306-4.168z" fill="url(#paint7_linear)"/><path d="M40.998 23.573c-1.384-5.207-14.3-8.03-15.625-7.115-.792.546-.469 2.658 0 3.848 6.402-.627 12.406 2.503 14.427 4.105.318-.075 1.08-.652 1.198-.838z" fill="url(#paint8_linear)"/><path d="M43.078 24.65c-2.697.513-2.472-.618-2.023-1.247 1.43-1.753 3.877-.73 4.922 0 .158.202-.202.735-2.899 1.247z" fill="url(#paint9_linear)"/><ellipse cx="18.965" cy="34.549" rx="5.681" ry="8.774" transform="rotate(-4.49 18.965 34.549)" fill="url(#paint10_linear)"/><path d="M18.175 29.741c-1.89.35-3.452-.243-3.996-.583.515-1.04 1.86-3.298 4.405-3.472 2.299-.157 3.77 1.699 4.432 3.1-.963-.078-2.95.605-4.84.955z" fill="url(#paint11_linear)"/><path d="M18.175 29.741c-1.89.35-3.452-.243-3.996-.583.515-1.04 1.86-3.298 4.405-3.472 2.299-.157 3.77 1.699 4.432 3.1-.963-.078-2.95.605-4.84.955z" fill="url(#paint12_linear)" fill-opacity=".5"/><path d="M21.033 45.836c3.237.072 5.297-4.176 5.922-6.309l-3.065-.238c-.278 1.24-1.692 3.628-4.349 3.932-2.822.323-4.923-3.225-5.577-5.01a.596.596 0 01-.263.15c.863 2.68 3.284 7.386 7.332 7.475z" fill="url(#paint13_linear)"/><path d="M21.033 45.836c3.237.072 5.297-4.176 5.922-6.309l-3.065-.238c-.278 1.24-1.692 3.628-4.349 3.932-2.822.323-4.923-3.225-5.577-5.01a.596.596 0 01-.263.15c.863 2.68 3.284 7.386 7.332 7.475z" fill="url(#paint14_linear)"/><path d="M24.97 19.093c1.456 4.697-.375 8.797-1.588 10.382 1.902 4.424.524 8.787.524 10.027 0 1.241 2.647.91 3.06 0 1.527-4.737 1.442-13.134-1.995-20.41z" fill="url(#paint15_linear)"/><path d="M15.2 29.562l-.973-.396c.27-.841 1.609-3.341 4.305-3.478-.853.245-2.958 2.228-3.331 3.874z" fill="url(#paint16_linear)"/><path opacity=".3" d="M18.757 29.648c-2.02.538-3.833-.055-4.487-.418-.552 1.003-.775 2.15-.818 2.598 2.805.843 7.89-.945 10.083-1.944l-.51-1.09c-.58.06-2.248.316-4.268.854z" fill="#F4BA0C"/><defs><linearGradient id="paint0_linear" x1="24.104" y1="10.532" x2="44.046" y2="23.058" gradientUnits="userSpaceOnUse"><stop offset=".339" stop-color="#FF7301"/><stop offset=".948" stop-color="#FFDD01"/></linearGradient><linearGradient id="paint1_linear" x1="33.916" y1="13.855" x2="45.222" y2="22.931" gradientUnits="userSpaceOnUse"><stop stop-color="#FF8101"/><stop offset="1" stop-color="#FFE601"/></linearGradient><linearGradient id="paint2_linear" x1="10.179" y1="26.883" x2="6.211" y2="38.373" gradientUnits="userSpaceOnUse"><stop stop-color="#FF9100"/><stop offset=".314" stop-color="#D4FF23"/><stop offset=".49" stop-color="#87FF70"/><stop offset=".688" stop-color="#1CFFDB"/><stop offset="1" stop-color="#00BEFF"/></linearGradient><linearGradient id="paint3_linear" x1="27.43" y1="10.642" x2="33.369" y2="13.139" gradientUnits="userSpaceOnUse"><stop stop-color="#FF4E00"/><stop offset="1" stop-color="#FF7300"/></linearGradient><linearGradient id="paint4_linear" x1="24.828" y1="13.105" x2="29.975" y2="13.819" gradientUnits="userSpaceOnUse"><stop stop-color="#FA0F00"/><stop offset="1" stop-color="#FF6E01"/></linearGradient><linearGradient id="paint5_linear" x1="16.338" y1="13.955" x2="19.834" y2="23.243" gradientUnits="userSpaceOnUse"><stop stop-color="#A80000"/><stop offset="1" stop-color="#FA0F01"/></linearGradient><linearGradient id="paint6_linear" x1="35.14" y1="26.165" x2="37.563" y2="35.554" gradientUnits="userSpaceOnUse"><stop stop-color="#FFE600"/><stop offset=".469" stop-color="#7AFF7D"/><stop offset=".891" stop-color="#1CFFDB"/><stop offset="1" stop-color="#00DCFE"/></linearGradient><linearGradient id="paint7_linear" x1="32.989" y1="22.423" x2="32.018" y2="26.952" gradientUnits="userSpaceOnUse"><stop stop-color="#F1FC06"/><stop offset=".469" stop-color="#7AFF7D"/><stop offset="1" stop-color="#1CFFDB"/></linearGradient><linearGradient id="paint8_linear" x1="27.955" y1="18.35" x2="35.665" y2="27.337" gradientUnits="userSpaceOnUse"><stop stop-color="#FFC100"/><stop offset="1" stop-color="#F1FC06"/></linearGradient><linearGradient id="paint9_linear" x1="43.395" y1="22.435" x2="43.395" y2="24.78" gradientUnits="userSpaceOnUse"><stop stop-color="#FFD701"/><stop offset="1" stop-color="#FFE601"/></linearGradient><linearGradient id="paint10_linear" x1="16.892" y1="27.006" x2="18.965" y2="43.322" gradientUnits="userSpaceOnUse"><stop stop-color="#FFA300"/><stop offset=".214" stop-color="#DEFF19"/><stop offset=".464" stop-color="#A4FF53"/><stop offset=".688" stop-color="#36FFC1"/><stop offset=".865" stop-color="#00A0FF"/><stop offset=".974" stop-color="#0064FF"/></linearGradient><linearGradient id="paint11_linear" x1="15.15" y1="27.588" x2="27.699" y2="28.443" gradientUnits="userSpaceOnUse"><stop stop-color="#FF8A01"/><stop offset="1" stop-color="#FFDB00"/></linearGradient><linearGradient id="paint12_linear" x1="21.139" y1="31.837" x2="20.99" y2="25.287" gradientUnits="userSpaceOnUse"><stop stop-color="#DFFD18"/><stop offset="1" stop-color="#FDAD12"/></linearGradient><linearGradient id="paint13_linear" x1="24.891" y1="41.019" x2="20.319" y2="45.459" gradientUnits="userSpaceOnUse"><stop stop-color="#14F3E6"/><stop offset="1" stop-color="#0040FF"/></linearGradient><linearGradient id="paint14_linear" x1="14.681" y1="39.022" x2="19.348" y2="42.013" gradientUnits="userSpaceOnUse"><stop stop-color="#09D3F3"/><stop offset="1" stop-color="#0001FC" stop-opacity="0"/></linearGradient><linearGradient id="paint15_linear" x1="24.473" y1="28.867" x2="27.827" y2="42.739" gradientUnits="userSpaceOnUse"><stop stop-color="#FF9100"/><stop offset=".314" stop-color="#D4FF23"/><stop offset=".49" stop-color="#87FF70"/><stop offset=".688" stop-color="#1CFFDB"/><stop offset="1" stop-color="#00D8FF"/></linearGradient><linearGradient id="paint16_linear" x1="14.405" y1="27.067" x2="15.857" y2="29.562" gradientUnits="userSpaceOnUse"><stop stop-color="#FF4E01"/><stop offset="1" stop-color="#F4BB0C"/></linearGradient></defs></svg>