<!-- by TradingView --><svg width="56" height="56" xmlns="http://www.w3.org/2000/svg"><path d="M0 28C0 12.536 12.536 0 28 0s28 12.536 28 28-12.536 28-28 28S0 43.464 0 28z" fill="url(#paint0_linear)"/><path fill="#fff" d="M12 12h4.004v4H12zM22 12h4.004v4H22zM21.998 22h4v4h-4zM32 12h4.004v4H32zM42.004 13h2.001v2h-2.001zM42.004 23h2.002v2h-2.002zM33 23h2.001v2H33zM33 33h2.001v2H33zM23 33h2v2h-2zM13 42h2v1.998h-2zM23 42h2v1.998h-2zM33 42h2.001v1.998H33zM42 42h2v2h-2zM42 33h2v2h-2zM12 22h4.004v4H12zM12 32h4.004v4H12z"/><defs><linearGradient id="paint0_linear" x1="10.418" y1="9.712" x2="68.147" y2="76.017" gradientUnits="userSpaceOnUse"><stop stop-color="#1A1E21"/><stop offset="1" stop-color="#06060A"/></linearGradient></defs></svg>