<!-- by TradingView --><svg xmlns="http://www.w3.org/2000/svg" width="56" height="56"><path fill="url(#apjgthifu)" d="M0 0h56v56H0z"/><path fill="#5F60C7" d="M27.53 9.66h.97v8.7h-.97zm-8.39 22.77l.51.83-7.35 4.4-.5-.82zm17.86.15l-.5.83 7.46 4.47.5-.82z"/><path fill-rule="evenodd" d="M19 23.03L28 18l9 5.03v9.95L28 38l-9-5.02v-9.95zm1 .44L28 19l8 4.47v8.84L28.01 37 20 32.31v-8.84z" fill="url(#bpjgthifu)"/><path fill="#8081EE" d="M27.51 27.71h.97v19h-.97z"/><path fill="#8081EE" d="M28.6 27.71l-.5.82-16.51-9.45.5-.82z"/><path fill="#8081EE" d="M27.5 27.71l.5.82 16.5-9.45-.5-.82z"/><path fill-rule="evenodd" d="M11 18.55L28 9l17 9.55v18.91L28 47l-17-9.54V18.55zm1 .45l16-9 16 9v18l-16 9-16-9V19z" fill="#8081EE"/><defs><linearGradient id="apjgthifu" x1="62.5" y1="28" x2="-7.07" y2="28" gradientUnits="userSpaceOnUse"><stop stop-color="#101115"/><stop offset=".51" stop-color="#283A5E"/><stop offset="1" stop-color="#101115"/></linearGradient><linearGradient id="bpjgthifu" x1="30.3" y1="16.06" x2="20.99" y2="37.31" gradientUnits="userSpaceOnUse"><stop stop-color="#86E0E9"/><stop offset="1" stop-color="#259AC1"/></linearGradient></defs></svg>