<!-- by TradingView --><svg width="56" height="56" xmlns="http://www.w3.org/2000/svg"><path fill="#0090FF" d="M0 0h56v56H0z"/><path d="M30.154 25.255l-.739 3.75 7.016.939-.492 1.758-6.893-.938c-.492 1.524-.738 3.165-1.354 4.572-.615 1.641-1.23 3.282-1.969 4.806-.985 1.993-2.708 3.4-5.046 3.751-1.354.235-2.83.118-3.939-.703-.369-.234-.738-.703-.738-1.055 0-.469-.01-1.019.615-1.29.625-.27.883-.08 1.231.118.37.351.739.82.985 1.29.738.937 1.723 1.054 2.707.35 1.108-.937 1.724-2.226 2.093-3.516.738-2.813 1.477-5.51 2.092-8.323v-.469l-6.523-.938.246-1.758 6.77.938.86-3.634-7.015-1.055.247-1.876 7.261.938c.246-.703.37-1.29.616-1.876.615-2.11 1.23-4.22 2.707-6.095 1.477-1.876 3.2-3.048 5.785-2.931 1.108 0 2.215.352 2.954 1.172.123.117.369.352.369.586 0 .47 0 1.056-.37 1.407-.492.352-1.107.235-1.6-.234-.369-.352-.615-.704-.984-1.055-.738-.938-1.846-1.055-2.707-.235-.616.586-1.231 1.407-1.6 2.228-.862 2.461-1.477 5.04-2.339 7.62l6.77.937-.493 1.758-6.523-.938z" fill="#fff"/></svg>