<!-- by TradingView --><svg width="56" height="56" viewBox="0 0 56 56" fill="none" xmlns="http://www.w3.org/2000/svg"><path fill="url(#aasksyd2z)" d="M0 0h56v56H0z"/><path d="M43 36.5v-17L28 11l-15 8.5v17L28 45l15-8.5Z" fill="url(#basksyd2z)"/><path d="M42 36V20l-14-8-14 8v16l14 8 14-8Z" fill="url(#casksyd2z)"/><mask id="dasksyd2z" style="mask-type:alpha" maskUnits="userSpaceOnUse" x="15" y="14" width="26" height="28"><path d="M40.1 34.88V21.17L28 14.3l-12.1 6.86v13.71L28 41.74l12.1-6.86Z" fill="url(#easksyd2z)"/></mask><g mask="url(#dasksyd2z)"><path d="M28.06 14.96 22.12 21l3.13 18.9 1.54 1.3h3.52l1.93-.86 2.15-19.77-6.33-5.61Z" fill="url(#fasksyd2z)"/><path d="m31.5 19.5-7 .15 2.34 21.55h3.4l1.27-21.7Z" fill="url(#gasksyd2z)"/><path d="m34.39 20.57-2.67-1.06-1.4 21.7 1.92-.87 2.15-19.77Z" fill="url(#hasksyd2z)"/><path d="m28.06 14.96 3.35 4.2-6.81.15 3.46-4.35Z" fill="url(#iasksyd2z)"/><path d="m29.16 16.35 2.25 2.8-6.81.16 4.56-2.96Z" fill="url(#jasksyd2z)"/><path d="M24.33 19.68 22.12 21l3.13 18.9 1.54 1.3-2.46-21.52Z" fill="url(#kasksyd2z)"/><path d="m22.11 21 2.26-1.62 3.69-4.42L22.1 21Z" fill="#004AFF"/><path d="m31.63 19.22 2.75 1.35-6.32-5.61 3.57 4.26Z" fill="#004AFF"/><path d="m24.27 27.61-5.08-1.68-2.5 5.14 6.84 9.68 1.56.76 1.95-1.57-2.77-12.33Z" fill="url(#lasksyd2z)"/><path d="m19.82 29.99 5.52 11.9 1.85-1.53-2.92-12.75-4.45 2.38Z" fill="url(#masksyd2z)"/><path d="m19.2 25.93.54 3.8 4.4-2.16-4.95-1.64Z" fill="url(#nasksyd2z)"/><path d="m16.68 31.07 2.89-1.2-.38-3.94-2.5 5.14Z" fill="#0053FF"/><path d="m16.68 31.07 2.94-1L25 41.54l-1.46-.78-6.85-9.68Z" fill="url(#oasksyd2z)"/><path d="m31.67 26.24 5.83-1.93 2.88 5.9-7.86 11.12-1.8.87-2.23-1.8 3.18-14.16Z" fill="url(#pasksyd2z)"/><path d="m36.78 28.97-6.17 13.2-2.12-1.77 3.18-14.16 5.1 2.73Z" fill="url(#qasksyd2z)"/><path d="m37.5 24.31-.63 4.37-5.05-2.49 5.68-1.88Z" fill="url(#rasksyd2z)"/><path d="m40.38 30.21-3.31-1.38.43-4.52 2.88 5.9Z" fill="#0053FF"/><path d="M40.38 30.21 37 29.07l-6.16 13.16 1.68-.9 7.86-11.12Z" fill="url(#sasksyd2z)"/><path d="m28.62 26.77-4.3 3.82 2 11.54 1.37.73 2.48.05 1.26-.78 1.6-11.68-4.4-3.68Z" fill="url(#tasksyd2z)"/><path d="m26.33 31.4 4.57.06-2.28-4.64-2.3 4.58Z" fill="url(#uasksyd2z)"/><path d="m24.31 30.59 1.98.85 1.4 11.42-1.36-.73-2.02-11.54Z" fill="url(#vasksyd2z)"/><path d="m30.95 31.5-.78 11.4 1.27-.77 1.59-11.68-2.08 1.05Z" fill="url(#wasksyd2z)"/><path d="m31.03 31.3 2-.85-4.4-3.68 2.4 4.53Z" fill="url(#xasksyd2z)"/><path d="m26.21 31.33-1.81-.81 4.23-3.75-2.42 4.56Z" fill="url(#yasksyd2z)"/><path d="m26.47 31.58 4.35.06-.65 11.27-2.48-.05-1.22-11.28Z" fill="url(#zasksyd2z)"/><path d="m20.94 32.2-1.44 4.34 4.62 5.1 1.09.4 1.13.2-1.51-8.15-3.89-1.88Z" fill="#F1F2F2"/><path d="m21 36.47 4.2 5.58 1.14.2-2.72-7.2L21 36.48Z" fill="url(#aaasksyd2z)"/><path d="M20.94 32.2v4.14l2.63-1.44-2.63-2.7Z" fill="#00AFFF"/><path d="m24.83 34.09-1.09.88 2.6 7.27-1.51-8.15ZM19.5 36.54l1.38-.03 4.33 5.54-1.1-.42-4.61-5.09Z" fill="#004AFF"/><path d="m20.94 32.2-1.44 4.34 1.32-.14.12-4.2Z" fill="url(#abasksyd2z)"/><path d="m20.94 32.2 2.71 2.63 1.18-.74-3.89-1.88Z" fill="url(#acasksyd2z)"/><path d="m34.81 33.13 1.56 4.05-4.25 5.21-1 .45-.88.07 1.02-7.82 3.55-1.96Z" fill="url(#adasksyd2z)"/><path d="m34.96 37.18-3.84 5.66-.88.07 2.2-6.95 2.52 1.22Z" fill="url(#aeasksyd2z)"/><path d="m34.81 33.13.2 3.93-2.53-1.25 2.33-2.68Z" fill="#00AFFF"/><path d="m31.26 35.09 1.06.8-2.08 7.02 1.02-7.82Z" fill="url(#afasksyd2z)"/><path d="m36.37 37.18-1.3.03-3.95 5.63 1-.45 4.25-5.2Z" fill="url(#agasksyd2z)"/><path d="m34.81 33.13 1.56 4.05-1.24-.07-.32-3.98Z" fill="url(#ahasksyd2z)"/><path d="m34.81 33.13-2.41 2.61-1.14-.65 3.55-1.96Z" fill="url(#aiasksyd2z)"/></g><defs><linearGradient id="aasksyd2z" x1="46" y1="9" x2="11" y2="47" gradientUnits="userSpaceOnUse"><stop stop-color="#000019"/><stop offset="1" stop-color="#001669"/></linearGradient><linearGradient id="basksyd2z" x1="28" y1="11" x2="28" y2="45" gradientUnits="userSpaceOnUse"><stop offset=".29" stop-color="#F1F2F2"/><stop offset=".57" stop-color="#FFFF8B"/><stop offset=".88" stop-color="#00CFFF"/></linearGradient><linearGradient id="casksyd2z" x1="20.98" y1="-1.66" x2="31.02" y2="41.66" gradientUnits="userSpaceOnUse"><stop offset=".15" stop-color="#00279E"/><stop offset=".99" stop-color="#000017"/></linearGradient><linearGradient id="easksyd2z" x1="21.93" y1="2.6" x2="30.47" y2="39.77"><stop offset=".99" stop-color="#000017"/></linearGradient><linearGradient id="fasksyd2z" x1="21.85" y1="41.67" x2="35.33" y2="12.77" gradientUnits="userSpaceOnUse"><stop offset=".29" stop-color="#F1F2F2"/><stop offset=".57" stop-color="#FFFF8B"/><stop offset=".88" stop-color="#00CFFF"/></linearGradient><linearGradient id="gasksyd2z" x1="28.51" y1="18.7" x2="26.06" y2="44.88" gradientUnits="userSpaceOnUse"><stop offset=".17" stop-color="#00AFFF"/><stop offset=".99" stop-color="#00CFFF"/></linearGradient><linearGradient id="hasksyd2z" x1="32.67" y1="18.74" x2="32.05" y2="43.25" gradientUnits="userSpaceOnUse"><stop offset=".01" stop-color="#004AFF"/><stop offset=".71" stop-color="#00AFFF"/></linearGradient><linearGradient id="iasksyd2z" x1="29.38" y1="14.42" x2="28.05" y2="19.26" gradientUnits="userSpaceOnUse"><stop offset=".29" stop-color="#F1F2F2"/><stop offset=".57" stop-color="#FFFF8B"/><stop offset=".88" stop-color="#00CFFF"/></linearGradient><linearGradient id="jasksyd2z" x1="26.44" y1="17.55" x2="29.35" y2="19.45" gradientUnits="userSpaceOnUse"><stop offset=".17" stop-color="#00AFFF"/><stop offset="1" stop-color="#00CFFF"/></linearGradient><linearGradient id="kasksyd2z" x1="25.6" y1="19.31" x2="23.24" y2="44.48" gradientUnits="userSpaceOnUse"><stop offset=".01" stop-color="#004AFF"/><stop offset=".71" stop-color="#00AFFF"/></linearGradient><linearGradient id="lasksyd2z" x1="16.68" y1="33.72" x2="27.04" y2="33.72" gradientUnits="userSpaceOnUse"><stop offset=".29" stop-color="#F1F2F2"/><stop offset=".57" stop-color="#FFFF8B"/></linearGradient><linearGradient id="masksyd2z" x1="19.82" y1="34.75" x2="27.19" y2="34.75" gradientUnits="userSpaceOnUse"><stop offset=".17" stop-color="#00AFFF"/><stop offset=".99" stop-color="#00CFFF"/></linearGradient><linearGradient id="nasksyd2z" x1="20.23" y1="32.52" x2="21.6" y2="26.8" gradientUnits="userSpaceOnUse"><stop offset=".29" stop-color="#F1F2F2"/><stop offset=".57" stop-color="#FFFF8B"/><stop offset=".88" stop-color="#00CFFF"/></linearGradient><linearGradient id="oasksyd2z" x1="16.68" y1="35.81" x2="24.99" y2="35.81" gradientUnits="userSpaceOnUse"><stop offset=".01" stop-color="#004AFF"/><stop offset=".71" stop-color="#00AFFF"/></linearGradient><linearGradient id="pasksyd2z" x1="40.38" y1="33.26" x2="28.49" y2="33.26" gradientUnits="userSpaceOnUse"><stop offset=".29" stop-color="#F1F2F2"/><stop offset=".57" stop-color="#FFFF8B"/></linearGradient><linearGradient id="qasksyd2z" x1="36.78" y1="34.2" x2="28.49" y2="34.2" gradientUnits="userSpaceOnUse"><stop offset=".17" stop-color="#00AFFF"/><stop offset=".99" stop-color="#00CFFF"/></linearGradient><linearGradient id="rasksyd2z" x1="37.37" y1="29.69" x2="35.01" y2="25.67" gradientUnits="userSpaceOnUse"><stop offset=".29" stop-color="#F1F2F2"/><stop offset=".57" stop-color="#FFFF8B"/><stop offset=".88" stop-color="#00CFFF"/></linearGradient><linearGradient id="sasksyd2z" x1="40.38" y1="35.65" x2="30.84" y2="35.65" gradientUnits="userSpaceOnUse"><stop offset=".01" stop-color="#004AFF"/><stop offset=".71" stop-color="#00AFFF"/></linearGradient><linearGradient id="tasksyd2z" x1="24.32" y1="34.84" x2="33.03" y2="34.84" gradientUnits="userSpaceOnUse"><stop offset=".29" stop-color="#F1F2F2"/><stop offset=".57" stop-color="#FFFF8B"/></linearGradient><linearGradient id="uasksyd2z" x1="30.06" y1="27.18" x2="28.96" y2="30.54" gradientUnits="userSpaceOnUse"><stop offset=".29" stop-color="#F1F2F2"/><stop offset=".57" stop-color="#FFFF8B"/><stop offset=".88" stop-color="#00CFFF"/></linearGradient><linearGradient id="vasksyd2z" x1="24.99" y1="29.3" x2="26.94" y2="40.83" gradientUnits="userSpaceOnUse"><stop offset=".01" stop-color="#004AFF"/><stop offset=".71" stop-color="#00AFFF"/></linearGradient><linearGradient id="wasksyd2z" x1="30.17" y1="36.68" x2="33.03" y2="36.68" gradientUnits="userSpaceOnUse"><stop offset=".01" stop-color="#004AFF"/><stop offset=".71" stop-color="#00AFFF"/></linearGradient><linearGradient id="xasksyd2z" x1="28.15" y1="26.65" x2="32.5" y2="31.56" gradientUnits="userSpaceOnUse"><stop offset=".17" stop-color="#004AFF"/><stop offset="1" stop-color="#00AFFF"/></linearGradient><linearGradient id="yasksyd2z" x1="24.4" y1="29.05" x2="28.63" y2="29.05" gradientUnits="userSpaceOnUse"><stop offset=".17" stop-color="#004AFF"/><stop offset="1" stop-color="#00AFFF"/></linearGradient><linearGradient id="zasksyd2z" x1="26.48" y1="37.24" x2="30.82" y2="37.24" gradientUnits="userSpaceOnUse"><stop offset=".17" stop-color="#00AFFF"/><stop offset=".99" stop-color="#00CFFF"/></linearGradient><linearGradient id="aaasksyd2z" x1="21.01" y1="38.65" x2="26.34" y2="38.65" gradientUnits="userSpaceOnUse"><stop offset=".01" stop-color="#004AFF"/><stop offset=".71" stop-color="#00AFFF"/></linearGradient><linearGradient id="abasksyd2z" x1="19.5" y1="34.38" x2="20.94" y2="34.38" gradientUnits="userSpaceOnUse"><stop offset=".31" stop-color="#004AFF"/><stop offset=".78" stop-color="#004AFF"/></linearGradient><linearGradient id="acasksyd2z" x1="20.2" y1="32.41" x2="24.13" y2="34.48" gradientUnits="userSpaceOnUse"><stop offset=".29" stop-color="#F1F2F2"/><stop offset=".57" stop-color="#FFFF8B"/><stop offset=".88" stop-color="#00CFFF"/></linearGradient><linearGradient id="adasksyd2z" x1="36.46" y1="37.78" x2="30.06" y2="38.1" gradientUnits="userSpaceOnUse"><stop offset=".29" stop-color="#F1F2F2"/><stop offset=".57" stop-color="#FFFF8B"/><stop offset=".88" stop-color="#00CFFF"/></linearGradient><linearGradient id="aeasksyd2z" x1="35.12" y1="39.21" x2="30.13" y2="39.46" gradientUnits="userSpaceOnUse"><stop offset=".01" stop-color="#004AFF"/><stop offset=".71" stop-color="#00AFFF"/></linearGradient><linearGradient id="afasksyd2z" x1="32.53" y1="38.87" x2="30.1" y2="38.99" gradientUnits="userSpaceOnUse"><stop offset=".31" stop-color="#004AFF"/><stop offset=".78" stop-color="#004AFF"/></linearGradient><linearGradient id="agasksyd2z" x1="35.9" y1="36.15" x2="32.14" y2="43.26" gradientUnits="userSpaceOnUse"><stop offset=".31" stop-color="#004AFF"/><stop offset=".78" stop-color="#004AFF"/></linearGradient><linearGradient id="ahasksyd2z" x1="36.33" y1="35.07" x2="34.98" y2="35.14" gradientUnits="userSpaceOnUse"><stop offset=".31" stop-color="#004AFF"/><stop offset=".78" stop-color="#004AFF"/></linearGradient><linearGradient id="aiasksyd2z" x1="34.94" y1="34.32" x2="31.29" y2="34.51" gradientUnits="userSpaceOnUse"><stop offset=".29" stop-color="#F1F2F2"/><stop offset=".57" stop-color="#FFFF8B"/><stop offset=".88" stop-color="#00CFFF"/></linearGradient></defs></svg>