<!-- by TradingView --><svg xmlns="http://www.w3.org/2000/svg" width="56" height="56" viewBox="0 0 56 56"><path fill="#283791" d="M0 0h56v56H0z"/><path d="M22.82 17.17l-1.76-3.59a15.94 15.94 0 0 1 13.88 0l-1.75 3.6c-1-.48-2.07-.83-3.19-1.01v23.66c1.21-.2 2.37-.59 3.43-1.13l.17 4.3a15.97 15.97 0 0 1-11.21-.01l.18-4.29c1.06.54 2.21.93 3.43 1.13V16.17c-1.12.18-2.2.53-3.18 1zM25 24v8l-3.01-5.73-.8 16.21a16.01 16.01 0 0 1-3.45-2.2l1.68-18.9-2.56-4.86c.94-.91 1.99-1.71 3.13-2.37L25 24zm-8.16 8.43a11.97 11.97 0 0 1 1.09-10.96l-1.96-4.02A15.94 15.94 0 0 0 12 28c0 4.36 1.74 8.3 4.57 11.2l.27-6.77zm17.17-6.25l.79 16.3a16.01 16.01 0 0 0 3.46-2.2l-1.69-18.95 2.57-4.81c-.94-.91-1.98-1.7-3.12-2.37L31 24v8c.81-1.61 1.9-3.7 3-5.82zm5.42 13.02A15.95 15.95 0 0 0 44 28c0-4.04-1.5-7.73-3.96-10.54l-1.97 4.02a11.94 11.94 0 0 1 1.08 10.96l.28 6.76z" fill="#fff"/></svg>