<!-- by TradingView --><svg xmlns="http://www.w3.org/2000/svg" width="56" height="56"><path fill="#F0F3FA" d="M0 0h56v56H0z"/><path d="M28 31.2l-10.25-6.02-.29.44a12.68 12.68 0 001.7 15.69 12.45 12.45 0 0017.68 0 12.64 12.64 0 001.7-15.69l-.29-.44L28 31.2z" fill="url(#apkxh5nzs)"/><path d="M38.2 25.2l-10.17 5.98-10.24-5.98 10.24-5.4 10.17 5.4z" fill="url(#bpkxh5nzs)"/><path d="M28.01 8.86l8.84 13.95L28.01 28V8.86z" fill="url(#cpkxh5nzs)"/><path d="M28.01 8.86V28l-8.84-5.2 8.84-13.94z" fill="url(#dpkxh5nzs)"/><defs><linearGradient id="apkxh5nzs" x1="28" y1="25.18" x2="28" y2="45" gradientUnits="userSpaceOnUse"><stop stop-color="#498BE9"/><stop offset="1" stop-color="#56F2FF"/></linearGradient><linearGradient id="bpkxh5nzs" x1="27.99" y1="19.81" x2="27.99" y2="31.18" gradientUnits="userSpaceOnUse"><stop stop-color="#4A8CEA"/><stop offset=".7" stop-color="#5ABEF4"/></linearGradient><linearGradient id="cpkxh5nzs" x1="33.37" y1="19.5" x2="29.79" y2="28" gradientUnits="userSpaceOnUse"><stop stop-color="#FB8174"/><stop offset=".56" stop-color="#568FDD"/></linearGradient><linearGradient id="dpkxh5nzs" x1="21.04" y1="18.43" x2="22.64" y2="26.16" gradientUnits="userSpaceOnUse"><stop stop-color="#FFE235"/><stop offset=".61" stop-color="#5DCBA2"/></linearGradient></defs></svg>