<!-- by TradingView --><svg width="56" height="56" xmlns="http://www.w3.org/2000/svg"><path d="M0 28C0 12.536 12.536 0 28 0s28 12.536 28 28-12.536 28-28 28S0 43.464 0 28z" fill="#FF564F"/><path d="M37 24h1.995L34.5 34h-2L28 24h2l3.5 8 3.5-8zM10 34V22H8v12h2zM15.5 34L11 28l4.5-5.999H18l-4.5 6 4.5 6h-2.5zM23.226 24c-2.19 0-3.908 1.191-4.028 3h1.964c.182-.85 1.32-.993 2.064-1 .743-.007 1.774.352 1.774 1.378V28h-2.488C20.287 28 19 29.326 19 31.019 19 32.804 20.333 34 22.294 34c1.167 0 2.01-.32 2.706-1.036V34h2v-6.776C27 25.267 25.494 24 23.226 24zM25 29.513v.593c-.13 1.296-.99 1.827-2.357 1.894-.792.04-1.481-.358-1.481-1s.472-1.22 1.603-1.294L25 29.513zM44.22 24c-2.188 0-3.907 1.191-4.026 3h1.963c.183-.85 1.32-.993 2.064-1 .744-.007 1.774.352 1.774 1.378V28h-2.487c-2.226 0-3.513 1.326-3.513 3.019 0 1.785 1.334 2.981 3.294 2.981 1.167 0 2.01-.32 2.706-1.036V34h2v-6.775c0-1.96-1.505-3.225-3.774-3.225zm1.775 5.513v.593c-.129 1.296-.99 1.827-2.357 1.894-.792.04-1.48-.357-1.48-1 0-.642.47-1.22 1.602-1.294l2.235-.193z" fill="#fff"/></svg>