<!-- by TradingView --><svg width="56" height="56" viewBox="0 0 56 56" xmlns="http://www.w3.org/2000/svg"><path fill="#8C44EE" d="M0 0h56v56H0z"/><path d="M36.66 22.16a2.13 2.13 0 0 0-2.14 0l-4.89 2.92-3.32 1.9-4.9 2.92c-.62.38-1.44.38-2.13 0l-3.89-2.28c-.63-.38-1.39-1.08-1.39-1.84v-4.5c0-.76.7-1.46 1.4-1.84l3.82-2.22a2.13 2.13 0 0 1 2.13 0l3.83 2.22c.62.38.82 1.08.82 1.84v2.91l3-1.96V19.3c0-.76.2-1.46-.5-1.84l-7.09-4.18a2.13 2.13 0 0 0-2.13 0l-7.21 4.18A2.06 2.06 0 0 0 11 19.31v8.44c0 .76.38 1.45 1.07 1.84l7.21 4.18c.63.38 1.44.38 2.13 0l4.9-2.85 3.32-1.97 4.9-2.85a2.13 2.13 0 0 1 2.13 0l3.82 2.22c.63.38 1.52 1.08 1.52 1.84v4.5c0 .76-.83 1.46-1.52 1.84l-3.82 2.28c-.63.38-1.45.38-2.14 0l-3.82-2.22c-.63-.38-1.7-1.08-1.7-1.84v-2.91l-3 1.96v2.92c0 .76.68 1.46 1.37 1.84l7.22 4.18c.62.39 1.44.39 2.13 0l7.21-4.18A2.2 2.2 0 0 0 45 36.69v-8.44c0-.76-.38-1.46-1.07-1.84l-7.27-4.25Z" fill="#fff"/></svg>