<!-- by TradingView --><svg width="56" height="56" xmlns="http://www.w3.org/2000/svg"><path fill="url(#paint0_linear)" d="M0 0h56v56H0z"/><path d="M23 22v12h10.336L23 22z" fill="url(#paint1_linear)"/><path d="M13.336 34H23V22l-9.664 12z" fill="#fff"/><path d="M18.4 41c2.672 1.883 6 3 9.6 3 3.6 0 6.928-1.117 9.6-3H18.4z" fill="#FF2D55"/><path d="M33.464 34H13.336a14.745 14.745 0 001.864 3h18.272v-3h-.008z" fill="#FFBC5B"/><path d="M34.032 30v9h7.336l-7.336-9z" fill="url(#paint2_linear)"/><path d="M26.704 39h7.328v-9l-7.328 9z" fill="#fff"/><path d="M34.032 26.4a4 4 0 100-8 4 4 0 000 8zM23 20a2 2 0 100-4 2 2 0 000 4z" fill="#FFC95B"/><defs><linearGradient id="paint0_linear" x1="47.799" y1="8.201" x2="8.201" y2="47.799" gradientUnits="userSpaceOnUse"><stop stop-color="#FF2D55"/><stop offset="1" stop-color="#FFBC5B"/></linearGradient><linearGradient id="paint1_linear" x1="28.332" y1="22" x2="28.332" y2="34" gradientUnits="userSpaceOnUse"><stop stop-color="#A524B3"/><stop offset="1" stop-color="#FF2D55"/></linearGradient><linearGradient id="paint2_linear" x1="37.698" y1="30" x2="37.698" y2="39" gradientUnits="userSpaceOnUse"><stop stop-color="#A524B3"/><stop offset="1" stop-color="#FF2D55"/></linearGradient></defs></svg>