<!-- by TradingView --><svg width="56" height="56" viewBox="0 0 56 56" xmlns="http://www.w3.org/2000/svg"><path fill="#308D8A" d="M0 0h56v56H0z"/><path d="M23.6 21.81c3.41-3.41 6.82-6.82 11.64-7.71 6.65-.89 11.2 4.29 9.34 11.2a9.64 9.64 0 0 1-1.86 3.77l-.02.03c-.42.53-1 1.28-1.58 1.61.12.57.28 1.13.43 1.69v.01l.12.4.07.24.04.14c.12.45.25.9.35 1.35.03.16.01.32-.06.47.16.44-.09 1.05-.75 1.04-1.3.17-2.6.3-3.89.42a68.6 68.6 0 0 0-6.78.9c-4.02.7-7.94 1.92-11.67 3.63a.58.58 0 0 1-.43-.2.58.58 0 0 1-.26-.09.62.62 0 0 1-.2-.18c-.36-.68-.57-1.44-.79-2.2a16.04 16.04 0 0 0-.6-1.83c-.07-.15-.12-.31-.16-.47-1.14.3-2.32.34-3.48.12-4.94-.73-5-5.86-2.18-9.19 1.77-2 4.64-2.68 7.15-2.46.17.04.38.07.62.1.53.08 1.16.17 1.62.4 1.14-1.01 2.23-2.1 3.32-3.18v-.01Zm16.83 7.62c.5-.4.93-.86 1.31-1.38 1.9-2.53 2.53-6.38 1.03-9.27-.89-1.9-2.91-2.8-4.8-3.2-3.77-.6-7.37 1.7-10.15 4.17a59.99 59.99 0 0 0-3.52 3.37c-1.82 1.84-3.64 3.68-5.78 5.1-.76.5-1.51-.7-.75-1.23.39-.27.77-.55 1.14-.85-2.33-.46-4.9-.12-6.73 1.52-1.36 1.42-2.56 4.13-1.2 5.92 2.03 1.85 5.14 1.37 7.35.13a.67.67 0 0 1 .53-.02c.18.06.32.2.4.37.3.82-.63 1.22-1.42 1.51.34.77.59 1.58.84 2.4v.01c.14.47.29.95.45 1.4 1.06-.6 2.22-1 3.37-1.39a49 49 0 0 1 6.16-1.74A70 70 0 0 1 37.28 35h.01c1.14-.12 2.28-.23 3.41-.37-.1-.36-.2-.71-.28-1.07a42.93 42.93 0 0 0-.46-1.7c-.1-.36-.22-.75-.23-1.09a24.45 24.45 0 0 0-3.8-.05 65.23 65.23 0 0 0-1.2.06c-1.26.08-2.48.22-3.74.53-.66.17-1.3.38-1.96.6h-.01l-.13.04-.67.22a.66.66 0 0 1-.52-.05.7.7 0 0 1-.34-.42.76.76 0 0 1 .22-.78c.07-.06.15-.1.23-.13a26.9 26.9 0 0 1 3.7-1.08c1.01-.18 2.03-.3 3.05-.39.85-1.08.98-2.65.53-3.94-.25-.9 1.03-1.34 1.31-.44.17.57.28 1.15.34 1.74.1.47-.12 1.6-.52 2.56.52-.02 1.05-.02 1.57-.01a4.4 4.4 0 0 0 1.12-1.88c.14-.56.21-1.12.23-1.7.1-.93 1.44-.8 1.36.15.04.72-.28 2.43-.9 3.52l.23.02c.2 0 .4.04.6.1ZM21.53 35a24.48 24.48 0 0 1 4.17-1.36c.86-.27 1.26 1.1.4 1.38l-.47.12a18.41 18.41 0 0 0-3.15 1c-.22.04-.47.18-.71.31l-.02.01c-.53.3-1.07.6-1.48.04-.43-.81.47-1.18 1.09-1.43l.17-.07Z" fill="#fff"/></svg>