<!-- by TradingView --><svg width="56" height="56" viewBox="0 0 56 56" xmlns="http://www.w3.org/2000/svg"><path fill="#F0F3FA" d="M0 0h56v56H0z"/><path d="M28 11a17.5 17.5 0 0 1 16 11l-3 .5a13.93 13.93 0 0 0-13-8.41c-7.78 0-14.16 6.1-14 13.91l-2.8 2.65A17.03 17.03 0 0 1 28 11ZM15.29 33.65a13.95 13.95 0 0 0 12.7 8.26c7.87 0 14.25-6.6 14.01-14.41l2.88-1.54A17.01 17.01 0 0 1 28 45a17.05 17.05 0 0 1-15.44-10l2.73-1.35Z" fill="#1C2C5F"/><path d="m9 34 17-12-1 5 10-5-1 5 13-4-17.5 8.5L31 27l-10 5 1-4-13 6Z" fill="#1C2C5F"/></svg>