<!-- by TradingView --><svg width="56" height="56" xmlns="http://www.w3.org/2000/svg"><path fill="url(#paint0_linear)" d="M0 0h56v56H0z"/><path d="M8.497 16.136a1 1 0 01.997-.005l15.997 9.1a1 1 0 01.506.869V39a1 1 0 11-2 0V26.681L10 18.72V39a1 1 0 11-2 0V17a1 1 0 01.497-.864zM47.503 16.136a1 1 0 00-.998-.005l-15.996 9.1a1 1 0 00-.506.869V39a1 1 0 102 0V26.681L46 18.72V39a1 1 0 102 0V17a1 1 0 00-.497-.864z" fill="#fff"/><defs><linearGradient id="paint0_linear" x1="0" y1="28" x2="56" y2="28" gradientUnits="userSpaceOnUse"><stop stop-color="#1BC4A3"/><stop offset="1" stop-color="#586979"/></linearGradient></defs></svg>