<!-- by TradingView --><svg width="56" height="56" viewBox="0 0 56 56" fill="none" xmlns="http://www.w3.org/2000/svg">
<rect width="56" height="56" fill="#FE0420"/>
<path fill-rule="evenodd" clip-rule="evenodd" d="M11.0393 36.5222C12.4169 37.5074 14.1843 38 16.3414 38C18.9517 38 21.0362 37.4106 22.5952 36.232C24.1541 35.0356 25.2507 33.2324 25.8852 30.8222C26.2659 29.3445 26.5921 27.8227 26.8641 26.2569C26.9547 25.694 27 25.2278 27 24.8583C27 23.6269 26.6828 22.5713 26.0484 21.6917C25.4139 20.7944 24.5438 20.1259 23.4381 19.6861C22.3323 19.2287 21.0816 19 19.6858 19C14.5559 19 11.3746 21.419 10.142 26.2569C9.70695 28.0338 9.3716 29.5555 9.13595 30.8222C9.04532 31.3851 9 31.8602 9 32.2472C9 34.0945 9.67976 35.5195 11.0393 36.5222ZM20.855 30.6639C20.3344 32.6847 18.8983 34 16.7221 34C14.5692 34 13.833 32.544 14.2205 30.6639C14.5468 28.9574 14.8731 27.5148 15.1994 26.3361C15.7616 24.1537 17.081 23 19.3323 23C21.4756 23 22.1797 24.4354 21.8067 26.3361C21.5891 27.5676 21.2719 29.0101 20.855 30.6639ZM29.0945 37.81C29.2003 37.9367 29.3501 38 29.5441 38H33.141C33.3174 38 33.4849 37.9367 33.6435 37.81C33.8022 37.6833 33.8992 37.5205 33.9345 37.3215L35.0708 32H38.7305C41.0403 32 42.8476 30.8796 44.17 29.8843C45.51 28.889 46.4005 27.351 46.8413 25.27C46.9471 24.7814 47 24.311 47 23.8586C47 22.2843 46.4005 21.081 45.2015 20.2486C44.0201 19.4162 42.4509 19 40.4936 19H33.4585C33.2822 19 33.1146 19.0633 32.9559 19.19C32.7973 19.3167 32.7002 19.4795 32.665 19.6786L29.0151 37.3215C28.9798 37.5024 29.0063 37.6652 29.0945 37.81ZM41.9483 25.2157C41.6191 26.6687 40.3516 28 38.8636 28H35.8221L36.8703 23H40.0441C41.1245 23 42.0277 23.213 42.0277 24.4014C42.0277 24.6367 42.0012 24.9081 41.9483 25.2157Z" fill="white"/>
</svg>
