<!-- by TradingView --><svg width="56" height="56" viewBox="0 0 56 56" xmlns="http://www.w3.org/2000/svg"><path fill="url(#aolstalxg)" d="M0 0h56v56H0z"/><path fill-rule="evenodd" d="M28 13a15 15 0 1 1-12.1 6.14A2.99 2.99 0 0 0 21 17a3 3 0 1 0-5.71 1.28A16 16 0 1 0 28 12v1Zm-10 6a2 2 0 1 0 0-4 2 2 0 0 0 0 4Zm10 16a7 7 0 1 0 0-14 7 7 0 0 0 0 14Z" fill="#fff"/><defs><linearGradient id="aolstalxg" x1="28" y1="0" x2="28" y2="56" gradientUnits="userSpaceOnUse"><stop stop-color="#E92121"/><stop offset="1" stop-color="#9C0403"/></linearGradient></defs></svg>