<!-- by TradingView --><svg width="56" height="56" viewBox="0 0 56 56" xmlns="http://www.w3.org/2000/svg"><path fill="url(#awt2ivh1w)" d="M0 0h56v56H0z"/><path d="M18.7 21.6c-.25-.28-.56-.6-.93-.6h-6.54a.22.22 0 0 1-.17-.06.18.18 0 0 1-.06-.14v-4.6c0-.06.02-.1.06-.14.04-.04.1-.06.17-.06h6.97a6.9 6.9 0 0 1 5.2 2.33l1.94 2.23-3.78 4.34-2.86-3.3Zm13.93-3.3a6.96 6.96 0 0 1 5.22-2.3h6.95c.07 0 .12.02.15.05.03.03.05.08.05.14v4.62a.2.2 0 0 1-.05.13c-.03.04-.08.06-.15.06h-6.54c-.37 0-.68.14-.93.41l-5.56 6.57 5.58 6.65c.25.25.55.37.9.37h6.55a.2.2 0 0 1 .15.07c.03.04.05.1.05.16v4.58a.2.2 0 0 1-.05.13c-.03.04-.08.06-.15.06h-6.95a6.85 6.85 0 0 1-5.2-2.33l-4.62-5.33-4.63 5.33A6.93 6.93 0 0 1 18.17 40h-6.94c-.07 0-.12-.02-.15-.06a.23.23 0 0 1-.05-.16V35.2c0-.05.01-.1.05-.13a.19.19 0 0 1 .15-.07h6.54c.35 0 .66-.34.93-.62l5.45-6.28 8.48-9.8Z" fill="#00D1FF"/><defs><linearGradient id="awt2ivh1w" x1="28" y1="0" x2="28" y2="56" gradientUnits="userSpaceOnUse"><stop offset=".27" stop-color="#08021F"/><stop offset="1" stop-color="#0F0439"/></linearGradient></defs></svg>