<!-- by TradingView --><svg width="56" height="56" xmlns="http://www.w3.org/2000/svg"><path fill="#2683FF" d="M0 0h56v56H0z"/><path d="M30.895 32.084c-.64.338-1.372.53-2.148.53-.99 0-1.907-.311-2.655-.84-.458.21-.97.328-1.508.328-1.982 0-3.588-1.587-3.588-3.545 0-1.957 1.606-3.544 3.588-3.544.26 0 .513.027.757.079a4.583 4.583 0 013.405-1.505c2.247 0 4.115 1.602 4.498 3.712a2.711 2.711 0 012.017 2.61c0 1.494-1.226 2.704-2.738 2.704-.61 0-1.173-.196-1.628-.529z" fill="#fff"/><path fill-rule="evenodd" d="M31.375 11.333c0 .257-.03.506-.085.746l9.17 5.175a3.387 3.387 0 012.165-.776c1.864 0 3.375 1.493 3.375 3.334 0 1.451-.94 2.686-2.25 3.143v10.042A3.338 3.338 0 0146 36.141c0 1.84-1.511 3.333-3.375 3.333-.808 0-1.55-.28-2.13-.748l-9.205 5.195c.056.24.085.49.085.746C31.375 46.507 29.864 48 28 48s-3.375-1.492-3.375-3.333c0-.257.03-.506.085-.746l-9.204-5.195a3.387 3.387 0 01-2.131.748c-1.864 0-3.375-1.492-3.375-3.333 0-1.451.94-2.686 2.25-3.144V22.956A3.338 3.338 0 0110 19.812c0-1.841 1.511-3.334 3.375-3.334.824 0 1.579.292 2.165.776l9.17-5.175a3.304 3.304 0 01-.085-.746C24.625 9.493 26.136 8 28 8s3.375 1.492 3.375 3.333zm-3.398 2.223c1.242 0 2.25-.995 2.25-2.223 0-1.227-1.008-2.222-2.25-2.222-1.243 0-2.25.995-2.25 2.222 0 1.228 1.007 2.223 2.25 2.223zm0 33.333c1.242 0 2.25-.995 2.25-2.222 0-1.228-1.008-2.223-2.25-2.223-1.243 0-2.25.995-2.25 2.223 0 1.227 1.007 2.222 2.25 2.222zM15.625 19.812c0 1.227-1.007 2.222-2.25 2.222s-2.25-.995-2.25-2.222c0-1.228 1.007-2.222 2.25-2.222s2.25.994 2.25 2.222zm-2.25 18.551c1.243 0 2.25-.995 2.25-2.222 0-1.227-1.007-2.222-2.25-2.222s-2.25.995-2.25 2.222c0 1.227 1.007 2.222 2.25 2.222zm31.5-2.222c0 1.227-1.007 2.222-2.25 2.222s-2.25-.995-2.25-2.222c0-1.227 1.007-2.222 2.25-2.222s2.25.995 2.25 2.222zm-2.25-14.107c1.243 0 2.25-.995 2.25-2.222 0-1.228-1.007-2.222-2.25-2.222s-2.25.994-2.25 2.222c0 1.227 1.007 2.222 2.25 2.222zM30.568 34.287a6.594 6.594 0 01-1.823.255 6.544 6.544 0 01-3.603-1.073 5.315 5.315 0 01-.845.068c-2.883 0-5.22-2.308-5.22-5.156 0-2.847 2.337-5.155 5.22-5.155.065 0 .13.001.195.004a6.539 6.539 0 014.253-1.56c2.866 0 5.3 1.827 6.172 4.366a4.643 4.643 0 012.352 4.03c0 2.57-2.11 4.654-4.713 4.654-.71 0-1.384-.155-1.988-.433zM29.12 11.333c0 .614-.503 1.111-1.125 1.111a1.118 1.118 0 01-1.125-1.11c0-.614.504-1.112 1.125-1.112.622 0 1.125.498 1.125 1.111zm-1.125 34.445c.622 0 1.125-.498 1.125-1.111 0-.614-.503-1.111-1.125-1.111-.62 0-1.125.497-1.125 1.11 0 .614.504 1.112 1.125 1.112zM14.5 36.176c0 .614-.504 1.112-1.125 1.112a1.118 1.118 0 01-1.125-1.111c0-.614.504-1.112 1.125-1.112s1.125.498 1.125 1.111zm28.125 1.112c.621 0 1.125-.498 1.125-1.111 0-.614-.504-1.112-1.125-1.112s-1.125.498-1.125 1.111c0 .614.504 1.112 1.125 1.112zM14.5 19.828c0 .614-.504 1.111-1.125 1.111a1.118 1.118 0 01-1.125-1.11c0-.614.504-1.112 1.125-1.112s1.125.498 1.125 1.111zm28.125 1.111c.621 0 1.125-.497 1.125-1.11 0-.614-.504-1.112-1.125-1.112s-1.125.498-1.125 1.111c0 .614.504 1.111 1.125 1.111z" fill="#fff"/><path d="M26.875 22.67V12.506h2.25V22.67h-2.25zM26.875 43.445V33.28h2.25v10.164h-2.25zM21.567 25.948l-7.748-4.79 1.194-1.883 7.748 4.79-1.194 1.883zM34.433 25.948l7.748-4.79-1.194-1.883-7.747 4.79 1.193 1.883zM15.026 36.453l7.178-4.572-1.22-1.868-7.177 4.573 1.22 1.867zM40.983 36.459l-6.385-3.986 1.202-1.878 6.385 3.985-1.202 1.879z" fill="#2683FF"/></svg>