<!-- by TradingView --><svg width="56" height="56" xmlns="http://www.w3.org/2000/svg"><path fill="#F0F3FA" d="M0 0h56v56H0z"/><path d="M18.357 13.822c.966-1.376 2.833-1.982 5.248-1.786 3.332.279 7.743 2.097 11.993 5.177 4.234 3.096 7.341 6.782 8.661 9.894.966 2.26.998 4.26.032 5.635l-6.632 9.436c-.966 1.376-2.85 1.982-5.248 1.786-3.332-.295-7.76-2.097-11.993-5.193-4.25-3.08-7.341-6.766-8.677-9.878-.966-2.26-.998-4.26-.032-5.635l6.648-9.436zm25.017 18.232c.773-1.08.612-2.686-.145-4.488-1.272-2.965-4.25-6.454-8.307-9.403-4.04-2.949-8.242-4.702-11.413-4.964-1.932-.164-3.462.197-4.234 1.294l-.033.066c-.724 1.097-.563 2.654.194 4.423 1.272 2.981 4.25 6.47 8.29 9.42 4.041 2.948 8.243 4.7 11.414 4.963 1.9.148 3.397-.197 4.185-1.229l.049-.082zm-10.335-11.22c2.028 1.474 3.525 3.226 4.153 4.717.37.836.467 1.573.097 2.08-.355.508-1.079.656-1.964.574-1.594-.131-3.687-1.016-5.715-2.49-2.029-1.474-3.526-3.211-4.154-4.702-.354-.835-.45-1.572-.096-2.08s1.079-.655 1.98-.59c1.578.148 3.687 1.016 5.699 2.49z" fill="#0E0F23"/><path d="M43.229 27.566c.757 1.802.918 3.407.145 4.489l-.048.081c-.79 1.032-2.286 1.377-4.186 1.23-3.171-.263-7.373-2.016-11.413-4.965-4.041-2.948-7.02-6.438-8.291-9.42-.757-1.768-.918-3.325-.194-4.422l.033-.066c.773-1.097 2.302-1.458 4.234-1.294 3.17.262 7.373 2.015 11.413 4.964 4.057 2.948 7.035 6.438 8.307 9.403z" fill="#fff"/><path d="M44.562 27.896a11.045 11.045 0 00-.303-.789c-1.32-3.112-4.427-6.798-8.66-9.894-4.25-3.08-8.662-4.898-11.994-5.177-2.415-.196-4.282.41-5.248 1.786l-6.648 9.436c-.966 1.376-.934 3.374.032 5.635.883 2.056 2.531 4.363 4.774 6.58.199-.02.397-.051.595-.096 1.195-.271 2.34-1.35 3.482-2.425 1.472-1.386 2.936-2.765 4.486-2.393 1.086.246 1.95 1.412 2.836 2.61.375.507.755 1.02 1.157 1.47 1.288 1.516 2.704 2.176 4.137 1.865 1.638-.328 2.885-1.791 4.044-3.442-2.856-.66-6.244-2.266-9.526-4.66-4.04-2.95-7.018-6.439-8.29-9.42-.757-1.77-.918-3.326-.194-4.423l.033-.066c.773-1.097 2.302-1.458 4.234-1.294 3.17.262 7.373 2.015 11.413 4.964 4.051 2.944 7.026 6.427 8.301 9.39l.191.014c.457.05.833.164 1.148.329z" fill="url(#paint0_linear)"/><path d="M37.192 25.551c-.628-1.49-2.125-3.243-4.153-4.718-2.012-1.474-4.121-2.342-5.699-2.49-.901-.065-1.626.082-1.98.59-.354.508-.258 1.245.096 2.08.628 1.491 2.125 3.227 4.154 4.702 2.028 1.474 4.121 2.359 5.715 2.49.885.082 1.61-.066 1.964-.573.37-.508.273-1.245-.097-2.081z" fill="url(#paint1_linear)"/><path d="M17.537 17.247c.134-.006.246.1.252.235.003.083.008.166.014.249a.244.244 0 01-.221.264.243.243 0 01-.26-.226 7.19 7.19 0 01-.016-.266.244.244 0 01.231-.256zm.048.773a.242.242 0 01.275.206c.288 1.937 1.36 3.837 2.753 5.59a.249.249 0 01-.036.346.239.239 0 01-.34-.037c-1.415-1.783-2.548-3.765-2.855-5.825a.245.245 0 01.203-.28zm7.138 10.35a.239.239 0 01.34-.027l.191.167.24.205a.249.249 0 01.032.346.239.239 0 01-.34.033l-.245-.21-.193-.168a.249.249 0 01-.025-.347zm.922.788a.239.239 0 01.339-.043c1.99 1.579 4.413 2.963 6.82 3.953a.247.247 0 01.134.32.24.24 0 01-.315.136c-2.444-1.006-4.907-2.412-6.936-4.021a.249.249 0 01-.042-.345zm15.339 5.61a.245.245 0 01-.2.282 6.803 6.803 0 01-.325.045.242.242 0 01-.267-.217.245.245 0 01.213-.271c.103-.012.203-.026.302-.042a.242.242 0 01.277.204z" fill="#fff"/><defs><linearGradient id="paint0_linear" x1="20.042" y1="13.7" x2="33.84" y2="32.015" gradientUnits="userSpaceOnUse"><stop stop-color="#27B0E6"/><stop offset=".52" stop-color="#C26BB3"/><stop offset="1" stop-color="#FA52A0"/></linearGradient><linearGradient id="paint1_linear" x1="20.042" y1="13.7" x2="33.84" y2="32.015" gradientUnits="userSpaceOnUse"><stop stop-color="#27B0E6"/><stop offset=".52" stop-color="#C26BB3"/><stop offset="1" stop-color="#FA52A0"/></linearGradient></defs></svg>