<!-- by TradingView --><svg width="56" height="56" viewBox="0 0 56 56" xmlns="http://www.w3.org/2000/svg"><path fill="#F0F3FA" d="M0 0h56v56H0z"/><path d="M35.8 24.18a10.28 10.28 0 0 1 2.17 6.34c0 2.43-.84 4.66-2.23 6.42l-.12.15-.03-.2a9.26 9.26 0 0 0-.1-.49c-.7-3.13-2.96-5.82-6.7-8-2.52-1.46-3.97-3.22-4.35-5.22a7.7 7.7 0 0 1 .3-3.72 8.54 8.54 0 0 1 1.31-2.6l1.46-1.82a.63.63 0 0 1 .98 0l7.31 9.14Zm2.3-1.82-9.74-12.19a.46.46 0 0 0-.72 0l-9.74 12.2-.03.03A13.4 13.4 0 0 0 15 30.72C15 38.05 20.82 44 28 44s13-5.95 13-13.28a13.4 13.4 0 0 0-2.87-8.32l-.03-.04Zm-17.87 1.78.87-1.09.03.2.07.48c.57 3.03 2.58 5.55 5.95 7.5 2.93 1.71 4.63 3.67 5.12 5.82.2.9.24 1.78.15 2.55v.05l-.04.02A9.76 9.76 0 0 1 28 40.7c-5.5 0-9.97-4.56-9.97-10.18 0-2.41.82-4.63 2.2-6.38Z" fill="#4BA2FF"/></svg>