<!-- by TradingView --><svg width="56" height="56" xmlns="http://www.w3.org/2000/svg"><path fill="url(#paint0_linear)" d="M0 0h56v56H0z"/><path fill-rule="evenodd" d="M20.46 20.5l.004.003c.308.26.539.454.685.591l.09.088a.85.85 0 01.062.07c.307.404.192.766-.335 1.05-.293.158-.895.318-1.196.318-.34 0-.458-.125-.458-.125l-.07-.059c-.168-.137-.362-.295-1.254-1.797a830.876 830.876 0 00-1.9-2.786 46.915 46.915 0 00-.72-1.04c-.075-.066-.074-.064 2.476 4.266.328.718.186 1.074.114 1.255a.34.34 0 00-.032.108c0 .26-.075.398-.415.758-.566.6-.82 1.274-1.003 2.67-.204 1.563-.78 2.668-2.378 4.558-.935 1.107-1.088 1.31-1.324 1.756-.297.561-.379.876-.412 1.585-.035.75.033 1.235.275 1.952.21.627.432 1.042.995 1.87.487.716.767 1.248.767 1.456 0 .165.034.166.788.004 1.805-.387 3.27-1.067 4.095-1.9.51-.517.63-.802.634-1.509.002-.463-.015-.56-.147-.826-.214-.433-.605-.793-1.465-1.35-1.128-.733-1.61-1.321-1.742-2.131-.11-.665.017-1.134.64-2.374.646-1.284.806-1.832.915-3.126.07-.836.167-1.166.42-1.43.264-.277.501-.37 1.155-.455 1.066-.138 1.744-.4 2.302-.887.483-.424.686-.831.717-1.445l.023-.465-.27-.299C21.516 19.771 12.06 12 12 12c-.012 0 .31.383.716.851 3.624 4.175 6.408 6.522 7.744 7.65zm-5.48 14.118a.798.798 0 00-.265-1.084c-.35-.22-.894-.117-.894.17a.195.195 0 00.02.084l.013.023a.228.228 0 00.05.05l.044.031.04.02c.194.096.208.202.055.42-.155.22-.142.415.035.546.286.213.691.096.903-.26z" fill="#FF0A6F"/><path d="M21.29 14.272c-.055-.016-.01-.026.103-.042.394-.058 1.325.02 1.965.165 1.497.338 2.858 1.202 4.311 2.738l.386.408.552-.084c2.327-.355 4.694-.073 6.675.795.544.239 1.403.714 1.51.836.035.039.097.29.14.557.146.925.073 1.634-.225 2.164a1.59 1.59 0 00-.101.205l-.02.058c-.031.117-.01.21.059.363.087.197.33.343.57.342.492 0 1.021-.755 1.267-1.805l.098-.418.193.208c1.058 1.139 1.89 2.692 2.033 3.797l.037.288-.177-.262c-.307-.45-.615-.758-1.009-1.005-.71-.446-1.462-.598-3.452-.698-1.797-.09-2.814-.235-3.822-.547-1.717-.531-2.581-1.238-4.62-3.776-.905-1.128-1.465-1.751-2.021-2.253-1.265-1.142-2.508-1.74-4.099-1.974a4 4 0 01-.353-.06z" fill="#FF0A6F"/><path d="M37.197 16.849c.046-.756.153-1.254.37-1.71.087-.18.167-.327.18-.327.012 0-.026.133-.084.296-.157.441-.184 1.045-.075 1.748.139.892.217 1.02 1.21 1.983.465.452 1.008 1.022 1.204 1.267l.357.444-.357-.317c-.437-.39-1.441-1.147-1.663-1.256a.494.494 0 00-.131-.05.1.1 0 00-.036 0c-.03.007-.056.028-.095.066-.085.08-.103.2-.115.767-.018.884-.145 1.451-.452 2.019-.165.307-.191.241-.042-.105.113-.259.124-.372.123-1.228-.002-1.72-.217-2.134-1.479-2.842a13.067 13.067 0 00-1.17-.575c-.324-.137-.581-.256-.572-.265.036-.034 1.266.307 1.762.488.736.269.858.304.947.271.06-.021.09-.187.118-.674zm-16.022-1.321c-.119 1.328.43 3.104 1.317 4.263.687.898 1.752 1.595 2.539 1.663.515.044.67-.11.437-.432-.324-.448-.722-1.139-.827-1.434a15.127 15.127 0 01-.316-1.206c-.37-1.636-.733-2.273-1.573-2.757-.306-.176-.96-.407-1.339-.473l-.201-.035-.037.411zm14.947 12.884c-4.144-1.583-5.603-2.957-5.603-5.276 0-.341.012-.62.027-.62.016 0 .176.112.357.25.84.64 1.781.912 4.386 1.273 1.532.212 2.395.384 3.19.634 2.53.796 4.095 2.411 4.468 4.612.108.639.044 1.838-.131 2.47-.14.499-.563 1.398-.675 1.433-.015.004-.03-.019-.041-.06a.956.956 0 01-.029-.198c-.042-.826-.482-1.63-1.22-2.233-.84-.685-1.97-1.23-4.729-2.285zm-3.109-.174c.058.164.148.539.2.832.332 1.874-.705 3.389-2.722 3.976a6.63 6.63 0 01-.451.1 32.83 32.83 0 01-.566.104l-.372.064-.48.079c-1.648.26-2.384.445-3.123.783-.525.24-1.16.598-1.121.634.005.005.031.003.071-.006.05-.01.12-.03.194-.054.932-.311 1.97-.472 3.546-.55.227-.01.465-.024.689-.039l.298-.02.302-.022.135-.012.157-.016c1.404-.168 2.378-.572 3.134-1.303.422-.407.673-.786.875-1.32.128-.34.145-.465.147-1.066 0-.612-.015-.724-.154-1.1-.182-.494-.396-.864-.668-1.154l-.197-.209.106.299z" fill="#FF0A6F"/><path d="M35.112 32.271c-.55-1.123-.676-2.207-.375-3.219.032-.108.084-.196.116-.196a.43.43 0 01.126.053c.05.026.106.06.162.095.254.162.763.435 2.118 1.136 1.692.876 2.656 1.553 3.312 2.328.574.678.93 1.45 1.101 2.392.097.533.04 1.817-.104 2.354-.455 1.694-1.512 3.024-3.02 3.8a3.96 3.96 0 01-.44.208c-.006 0-.004-.015.005-.042l.018-.052c.031-.08.087-.201.155-.337.508-1.007.565-1.985.182-3.075-.235-.667-.714-1.48-1.68-2.856-1.124-1.6-1.4-2.025-1.676-2.589zm-10.37 3.684c-1.742.269-3.655 1.144-5.193 2.376l-.458.367.402.06c2.1.31 2.666.586 4.122 2.01.838.82 1.12 1.002 1.816 1.17 1.02.247 2.027-.207 2.372-1.072.154-.386.134-1.025-.043-1.346-.421-.765-1.648-1.012-2.24-.452-.494.467-.35 1.17.264 1.29.14.028.137.022-.036-.052-.269-.115-.385-.275-.387-.53-.003-.596.716-.932 1.386-.645.49.21.685.484.685.965 0 .74-.664 1.299-1.437 1.207-.413-.049-.918-.3-1.19-.59-.681-.731-.415-1.885.537-2.328.724-.337 1.687-.254 2.434.21.857.533 1.223 1.02 1.961 2.62.241.52.55 1.107.689 1.303.7.994 1.538 1.482 2.549 1.482.556 0 .976-.097 1.503-.347.392-.185.947-.538.907-.576-.011-.01-.174.037-.361.107-1.103.408-2.224.38-2.876-.073-.41-.285-.74-.852-.91-1.561-.03-.123-.127-.665-.217-1.206-.226-1.369-.443-1.984-.95-2.69-.518-.723-1.516-1.33-2.631-1.6-.695-.169-1.947-.215-2.698-.099z" fill="#FF0A6F"/><path fill-rule="evenodd" d="M22.302 25.37c.15-.527.637-1.03 1.137-1.176.317-.093.975-.034 1.284.115.6.29 1.034.948.94 1.423-.115.58-1.106 1.043-2.245 1.05-.582.005-.797-.07-1.019-.351-.137-.175-.189-.74-.097-1.06zm2.268-.854c.299.173.376.43.2.666-.121.163-.496.318-.77.318-.41 0-.859-.277-.859-.53 0-.51.86-.784 1.429-.454z" fill="#FF0A6F"/><defs><linearGradient id="paint0_linear" x1="6.34" y1="28" x2="56" y2="13.584" gradientUnits="userSpaceOnUse"><stop stop-color="#FFF0F6"/><stop offset="1" stop-color="#FFB3CF"/></linearGradient></defs></svg>