<!-- by TradingView --><svg width="56" height="56" fill="none" xmlns="http://www.w3.org/2000/svg"><path fill="url(#paint0_linear_1530)" d="M0 0h56v56H0z"/><path fill-rule="evenodd" clip-rule="evenodd" d="M12.001 18.036L18.36 38.82c.215.702.852 1.18 1.573 1.18h3.285a1.65 1.65 0 001.532-1.059l3.225-8.254a.027.027 0 01.05 0l3.263 8.26A1.649 1.649 0 0032.818 40h3.136c.718 0 1.353-.474 1.57-1.172L40.585 29h-5.22l-.892 2.936a.027.027 0 01-.05.003l-2.93-6.672c-1.368-2.97-5.508-2.98-6.89-.017l-3.103 6.689a.027.027 0 01-.05-.004L17.347 18h-5.32a.027.027 0 00-.026.036zM36.276 26h5.243l2.48-7.964a.027.027 0 00-.026-.036h-5.266l-2.43 8z" fill="#fff"/><defs><linearGradient id="paint0_linear_1530" x1="10.418" y1="9.712" x2="68.147" y2="76.017" gradientUnits="userSpaceOnUse"><stop stop-color="#1A1E21"/><stop offset="1" stop-color="#06060A"/></linearGradient></defs></svg>