<!-- by TradingView --><svg width="56" height="56" xmlns="http://www.w3.org/2000/svg"><path fill="#006AE3" d="M0 0h56v56H0z"/><path d="M27 16h3v25h-3V16z" fill="#fff"/><path d="M18.797 17.62c0 4.306 1.836 6.357 6.203 9.387v-3.154c-2.426-1.924-3.536-3.444-3.536-6.266 0-3.852 3.15-6.974 7.036-6.974 3.886 0 7.036 3.122 7.036 6.974a6.896 6.896 0 01-.997 3.58l-1.04-4.383-2.684.626 2.125 8.741 8.72-2.316-.713-2.64-3.89 1.033c.74-1.348 1.15-2.909 1.15-4.608 0-5.313-4.345-9.62-9.705-9.62s-9.705 4.307-9.705 9.62zm19.408 20.76c0-4.306-1.848-6.388-6.215-9.417v3.153c2.426 1.924 3.548 3.474 3.548 6.297 0 3.852-3.15 6.974-7.036 6.974-3.886 0-7.036-3.122-7.036-6.974 0-1.309.363-2.533.996-3.58l1.04 4.383 2.684-.626-2.124-8.741-8.72 2.316.713 2.64 3.89-1.033c-.741 1.348-1.15 2.909-1.15 4.608 0 5.313 4.345 9.62 9.705 9.62s9.705-4.307 9.705-9.62z" fill="#fff"/></svg>