<!-- by TradingView --><svg width="56" height="56" xmlns="http://www.w3.org/2000/svg"><path fill="#2E84FD" d="M0 0h56v56H0z"/><path d="M31.72 44.982c-2.48 0-4.28-.577-5.435-1.749-1.12-1.172-1.698-2.428-1.698-3.77 0-.51.119-.917.305-1.257.195-.334.477-.61.816-.798.34-.187.764-.288 1.256-.288.493 0 .934.101 1.274.288a2.156 2.156 0 011.104 2.038c0 .611-.136 1.087-.425 1.477a2.054 2.054 0 01-1.036.73c.34.476.883.799 1.63 1.003.73.203 1.478.305 2.208.305a4.976 4.976 0 002.785-.815c.85-.543 1.444-1.358 1.834-2.411.408-1.07.594-2.276.594-3.617 0-1.478-.203-2.718-.645-3.753a4.653 4.653 0 00-1.868-2.344 5.077 5.077 0 00-2.717-.747c-.611 0-1.41.255-2.36.764l-1.732.85v-.85L35.42 20H25v10.429c0 2.313 1.776 3.923 3.832 2.411a6.385 6.385 0 001.495-1.528.576.576 0 01.203-.238.407.407 0 01.255-.102c.153 0 .323.085.51.22.182.194.285.448.288.714a4.96 4.96 0 01-.102.544 5.197 5.197 0 01-1.868 2.258c-1.98 1.317-5.576 1.113-7.267-.577a5.075 5.075 0 01-1.341-3.702V20H15v-2h6.005v-5L20 12v-.982h3.416L25 13v5h13.92l1.426 1.17-8.78 8.627a5.962 5.962 0 011.648-.391c.95 0 2.037.306 3.226.9 1.189.577 2.106 1.392 2.751 2.411.645 1.02 1.07 1.987 1.24 2.921.188.82.29 1.656.306 2.497a10.222 10.222 0 01-1.07 4.619 6.86 6.86 0 01-3.227 3.192A10.699 10.699 0 0131.72 45v-.017z" fill="#fff"/></svg>