<!-- by TradingView --><svg width="56" height="56" xmlns="http://www.w3.org/2000/svg"><path fill="url(#paint0_linear)" d="M0 0h56v56H0z"/><path d="M39.307 14h4.631l-9.634 10.278A8.739 8.739 0 0128 27.01a8.739 8.739 0 01-6.304-2.732L12.046 14h4.647l7.311 7.873c2.141 2.271 5.851 2.271 7.992 0L39.306 14zM16.63 41.984h-4.63l9.695-10.247a8.754 8.754 0 016.312-2.732 8.754 8.754 0 016.312 2.733L44 42h-4.631l-7.357-7.842c-2.142-2.27-5.851-2.27-7.992 0l-7.389 7.826z" fill="#fff"/><defs><linearGradient id="paint0_linear" x1="10.418" y1="9.712" x2="68.147" y2="76.017" gradientUnits="userSpaceOnUse"><stop stop-color="#1A1E21"/><stop offset="1" stop-color="#06060A"/></linearGradient></defs></svg>