<!-- by TradingView --><svg width="56" height="56" xmlns="http://www.w3.org/2000/svg"><path fill="#E51937" d="M0 0h56v56H0z"/><path d="M44 28.021C44 36.88 36.836 44 27.935 44 19.165 44 12 36.836 12 28.021 12 19.165 19.164 12 27.979 12 36.835 12 44 19.164 44 28.021zm-15.634-2.108c-.999-.781-1.52-.913-2.518-.913-1.781.043-2.848 1.087-2.848 2.866v3.108c0 .65.285 1.026.806 1.026.522 0 .825-.376.825-.983v-2.673c0-.911.522-1.39 1.433-1.346.825 0 1.346.521 1.39 1.39v2.76c0 .694.676.954 1.216.824.39-.174.52-.521.52-.912v-2.599c0-.912.565-1.504 1.433-1.461.869 0 1.334.55 1.377 1.504v2.6c0 .513.386.896.908.896.521 0 .798-.4.798-.853v-3.193c0-1.433-.738-2.345-2.084-2.736-.912-.26-1.78-.173-2.562.305-.217.087-.433.26-.694.39zm-5.775 2.475v-2.475c0-.564-.304-.87-.825-.913-2.953-.26-5.775 1.217-7.12 3.909-.305.608-.516 1.587-.646 2.282-.086.433.174.809.565.809h4.863c.477 0 .782-.375.782-.896S19.824 30 19.216 30h-2.735c-.304 0-.347-.147-.26-.364.738-1.78 2.504-2.462 4.24-2.636.305-.043.538.1.538.404v3.395c0 .131.013.261.013.392.087.52.407.809.884.809.478-.043.738-.355.738-.92-.043-.737-.043-1.867-.043-2.692zM37.658 32c1.52.019 2.821-.833 3.3-2.092.173-.478.021-.651-.413-.825-.434-.173-.868 0-1.085.391-.434.868-1.13 1.216-2.084 1.129-.956-.13-1.694-.912-1.737-1.867-.044-.956.564-1.824 1.476-2.04 1.085-.26 1.998.13 2.388 1.041.13.305.348.478.651.478.652.087 1.094-.707.846-1.347C40.48 25.523 38.913 25 37.659 25c-1.789 0-3.604 1.36-3.604 3.258 0 2.478 1.357 3.714 3.604 3.742z" fill="#fff"/></svg>