<!-- by TradingView --><svg width="56" height="56" viewBox="0 0 56 56" xmlns="http://www.w3.org/2000/svg"><path fill="#181B1E" d="M0 0h56v56H0z"/><path d="M44 28c0-8.82-7.18-16-16-16s-16 7.18-16 16 7.18 16 16 16 16-7.18 16-16ZM26.64 13 14.59 34.92A14.9 14.9 0 0 1 13 28a15 15 0 0 1 13.64-15Zm.9 14.73-11.67 6.74 11.67-21.26v14.52Zm0 15.27a15.02 15.02 0 0 1-12.37-7.07l12.37-7.15V43Zm4.04-22.84a9.34 9.34 0 0 1-3.13 6.95v-13.9a9.2 9.2 0 0 1 3.13 6.95Zm9.25-.1L30.7 25.91a10.23 10.23 0 0 0 1.02-9.63 10.03 10.03 0 0 0-2.2-3.28c4.63.48 8.85 3.1 11.3 7.06Zm.45 15.09L28.9 28l12.38-7.15A14.98 14.98 0 0 1 43 28c0 2.5-.53 4.95-1.72 7.15Zm-.45.78A15.02 15.02 0 0 1 28.45 43V28.79l12.38 7.14Z" fill="#F0F3FA"/></svg>