<!-- by TradingView --><svg width="56" height="56" viewBox="0 0 56 56" fill="none" xmlns="http://www.w3.org/2000/svg">
<rect width="56" height="56" fill="#6E93BE"/>
<path d="M25.6179 26.8689L25.758 28H27.753V27.6514L27.5221 27.2602V19L25.274 19.1555V19.3511L25.5221 19.7424V22.037C25.355 21.5028 25.1462 21.2145 24.4681 21.2145C23.0872 21.2145 22 22.3881 22 24.6326C22 26.9023 23.0356 28 24.4803 28C25.2076 28.005 25.4263 27.679 25.6179 26.8689ZM24.8759 21.6759C25.5541 21.6759 25.527 22.6539 25.527 24.6377C25.527 26.6992 25.5663 27.536 24.8759 27.536C24.2887 27.536 24 26.9875 24 24.6653C24 22.3806 24.2887 21.6759 24.8759 21.6759ZM30 33.2346C30 31.9155 29.3742 31.2384 28.3005 31.2384C27.6101 31.2384 27.26 31.5242 27.0045 32.0986V29L24.7477 29.1993V29.3949L25.0032 29.7861V37.4604L24.7477 37.8516V38H27.26V37.8516L27.0045 37.4604V33.0516C27.0045 32.3067 27.1506 31.8779 27.6223 31.8779C28.0179 31.8779 27.9998 32.2039 27.9998 32.7381V37.4604L27.7443 37.8516V38H30.2415V37.8516L30 37.4604V33.2346ZM34.3194 33.7965L33.2064 33.157C32.5798 32.8033 32.3366 32.6356 32.3366 32.2043C32.3366 31.6952 32.6437 31.4093 33.1794 31.4093C33.6904 31.4093 33.9582 31.6701 34.2654 32.44L34.5332 33H35V31.2287C34.3858 31.0983 33.8796 31 33.4447 31C31.9238 31 31.0147 31.7504 31.0147 32.9516C31.0147 33.709 31.3661 34.3611 32.0811 34.7523L33.2064 35.3642C33.8452 35.7178 34 36.0288 34 36.578C34 37.23 33.7494 37.6213 33.1352 37.6213C32.484 37.6213 32.1253 37.1774 31.7027 35.8733L31.5234 35.3642H31V37.7768C31.9337 37.9473 32.5479 38 32.9803 38C34.7445 38 35.4472 37.0595 35.4472 35.8859C35.457 34.9454 35.059 34.2278 34.3194 33.7965ZM37 22.9798C37 21.6607 36.6709 21 35.6463 21C34.8674 21 34.2532 21.4124 34.0345 22.0795C33.7913 21.3874 33.2925 21 32.5259 21C31.7986 21 31.2285 21.3221 31 21.909V21.1318L28.727 21.3874V21.5829L29 21.8964V27.4415L28.727 27.8327V28H31.2728V27.8327L31 27.4415V22.8977C31 22.1679 31.189 21.8964 31.5039 21.8964C31.8189 21.8964 32 22.1343 32 22.5907V27.444L31.7676 27.8352V28H34.2836V27.8327L34 27.4415V22.8244C34 22.0945 34.2538 21.8964 34.4988 21.8964C34.7437 21.8964 35 22.0845 35 22.541V27.444L34.7199 27.8327V27.9975L37.2383 28V27.8327L37 27.4415V22.9798ZM9.32819 23.3706L10 23.97V27.4916C10 27.5231 10.0025 27.5819 9.82309 27.5819C8.42998 27.5819 8 26.2904 8 23.5117C8 20.7856 8.72481 19.4414 9.83784 19.4414C10.4644 19.4414 10.596 19.8978 10.9302 20.9035L11.2889 22H12V19.1831C11.1376 19.0251 10.338 19 9.9793 19C7.1562 19 6 20.5373 6 23.5393C6 26.3305 7.06143 28 9.87224 28C10.5627 28 11.1046 27.938 11.9989 27.7675V23H9.32819V23.3706ZM21.2633 27.8327L21 27.4415V19L18.77 19.1555V19.3511L19 19.7424V27.439L18.77 27.8302V28H21.2633V27.8327ZM10.5774 32.8057L9.28501 32.0634C8.60688 31.6722 8.2629 31.2033 8.2629 30.6013C8.2629 29.9092 8.71008 29.4528 9.46437 29.4528C10.1548 29.4528 10.5135 29.8565 10.8575 30.9399L11.2015 32H12V29.1769C11.1425 29.059 10.4226 29 9.96315 29C7.91892 29 6.69042 29.9468 6.69042 31.4867C6.69042 32.5048 7.2285 33.1794 8.2113 33.7136L9.48894 34.4183C10.231 34.8221 10.5749 35.3437 10.5749 36.0634C10.5749 36.9512 10.0246 37.6158 9.25798 37.6158C8.53072 37.6158 8.10811 37.0164 7.54545 35.1757L7.28992 34.3807H6.67568V37.8114C7.46929 37.9544 8.31204 38 8.88698 38C10.9828 38 12.172 37.029 12.172 35.2559C12.1744 34.1048 11.6634 33.4302 10.5774 32.8057ZM22.0812 37.3424C21.3023 37.3424 20.9952 36.5976 20.9952 34.5637C20.9952 32.0458 21.4031 31.3662 21.9289 31.3662C22.2606 31.3662 22.4522 31.6395 22.7593 32.6828L23.0149 33.5179H23.6168V31.3009C23.0787 31.0803 22.4399 31 21.9682 31C20.1917 31 19 32.2389 19 34.496C19 36.6878 20.037 38 21.688 38C22.7225 38 23.2728 37.4828 23.6684 36.3368L23.3613 36.1662C23.0148 37.0289 22.607 37.3424 22.0812 37.3424ZM15.702 21C14.2058 21 13 22.2846 13 24.5166C13 26.7486 14.2082 28 15.702 28C17.2107 28 18.4202 26.7461 18.4202 24.5141C18.4227 22.2846 17.2107 21 15.702 21ZM15.702 27.6514C15.1272 27.6514 14.9958 26.9843 14.9958 24.5191C14.9958 22.0539 15.1272 21.4294 15.702 21.4294C16.2893 21.4294 16.4202 22.0514 16.4202 24.5166C16.4202 26.9818 16.2917 27.6514 15.702 27.6514ZM18 33.012C18 31.733 17.0688 31 15.6118 31C14.9459 31 13.7518 31.1837 13 31.4195V33.5461H13.6004L14.0247 32.5305C14.3564 31.6703 15.0123 31.3944 15.4226 31.3944C15.8968 31.3944 16 31.733 16 32.5305V33.496L15.3071 33.8095C13.543 34.5267 12.7406 35.4165 12.7406 36.4848C12.7406 37.5807 13.3917 37.9976 14.3893 37.9976C15.1042 37.9976 15.7936 37.644 16 37.0571V37.9976L18.1204 38V37.644L18 37.2252V33.012ZM16 36.1167C16 36.7963 15.6503 37.1387 15.3071 37.1387C14.6693 37.1387 14.5866 36.8185 14.5866 36.0634C14.5866 34.965 14.861 34.3411 15.8182 34.0151L16 33.9123V36.1167ZM50 22.9963C50 21.6771 49.3727 21 48.299 21C47.584 21 46.982 21.3009 46.7658 21.9404L46.7142 21.158H46.5619L44.7461 21.3787V21.5743L45.0017 21.8878V27.4157L44.7461 27.8069V28H47.2579V27.8044L47.0023 27.4132V22.8132C47.0023 22.0683 47.0768 21.6389 47.5608 21.6389C47.9441 21.6389 48 21.9655 48 22.4997V27.4132L47.7602 27.8044V28H50.2V27.8044L50 27.4132V22.9963ZM43.5 23.0427C43.5 21.7637 42.597 21 41.1278 21C40.4767 21 39.2773 21.2145 38.523 21.4502V23.5768H39.0979L39.5058 22.5211C39.8375 21.6608 40.0808 21.4251 40.4911 21.4251C40.9775 21.4251 41.5 21.7637 41.5 22.5612V23.5142L40.378 23.8402C38.6139 24.5574 38 25.2371 38 26.3054C38 27.4013 38.6926 28 39.6876 28C40.4026 28 41.4865 27.6948 41.6929 27.1079V28H43.6486V27.6747L43.5 27.2584V23.0427ZM41.5 26.1499C41.5 26.8295 41.1353 27.2584 40.7004 27.2584C40.2778 27.2584 40 26.827 40 26.0446C40 25.0264 40.7457 24.269 41.5 23.943V26.1499Z" fill="white"/>
</svg>
