<!-- by TradingView --><svg xmlns="http://www.w3.org/2000/svg" width="56" height="56"><path fill="#F0F3FA" d="M0 0h56v56H0z"/><path fill="#F5E045" d="M13 13h30v30H13z"/><path fill-rule="evenodd" d="M16 16h24v1H16v-1zm11.84 3H26v5h1.84c1.2 0 2.16-1.12 2.16-2.5s-.97-2.5-2.16-2.5zm-.33 1H27v3h.5c.83 0 1.5-.67 1.5-1.5s-.67-1.5-1.5-1.5zM22 19h1v4h2v1h-3v-5zm7.52 9H30v-2.5h-.48V28zm-12.23-.65c0-.09-.03-.16-.1-.2a1.2 1.2 0 00-.34-.16c-.16-.05-.3-.1-.39-.16-.26-.14-.39-.34-.39-.58 0-.13.04-.24.1-.34a.7.7 0 01.3-.23c.14-.06.29-.08.45-.08.16 0 .31.03.44.09a.68.68 0 01.4.63h-.47c0-.1-.03-.2-.1-.25a.4.4 0 00-.28-.09c-.11 0-.2.03-.27.08a.24.24 0 00-.1.2c0 .07.04.13.12.18.07.05.18.1.33.15.27.08.47.18.59.3.12.13.18.28.18.46 0 .2-.07.36-.22.48a.98.98 0 01-.61.17c-.18 0-.34-.03-.48-.1a.78.78 0 01-.34-.27.7.7 0 01-.11-.4h.48c0 .26.15.39.45.39.11 0 .2-.02.26-.07.07-.05.1-.11.1-.2zm1.34-.2V28h-.48v-2.37h.9c.17 0 .32.03.45.1a.7.7 0 01.3.27c.08.12.11.25.11.4 0 .23-.07.41-.23.55a.95.95 0 01-.64.2h-.41zm0-.4h.42c.12 0 .22-.03.28-.09.07-.06.1-.14.1-.25 0-.12-.03-.21-.1-.28a.37.37 0 00-.27-.11h-.43v.73zm1.67-1.12V28h.72c.2 0 .38-.08.54-.17.16-.1.28-.23.37-.4.09-.17.13-.36.13-.58v-.1c0-.22-.04-.42-.13-.59a.95.95 0 00-.38-.4c-.16-.08-.34-.13-.54-.13h-.7zm.48 1.95v-1.56H21c.19 0 .33.06.43.18.1.13.14.3.14.54v.13c0 .23-.05.4-.15.53-.1.12-.24.18-.42.18h-.23zm2.54-.47h-.37V28h-.48v-2.37h.86c.27 0 .48.06.63.18.14.13.22.3.22.53 0 .16-.04.29-.1.4a.7.7 0 01-.31.25l.5.96V28h-.51l-.44-.89zm-.37-.39h.38c.12 0 .21-.03.28-.09.06-.06.1-.15.1-.26 0-.1-.04-.2-.1-.26a.396.396 0 00-.28-.1h-.38v.71zm3.98 1.2a.83.83 0 00.36-.25v-.93h-.9v.35h.43v.4c-.08.08-.2.12-.38.12a.47.47 0 01-.4-.19.94.94 0 01-.14-.55v-.15c0-.24.04-.43.13-.55.08-.12.2-.18.36-.18.13 0 .23.03.3.09.07.06.12.16.14.3h.46a.85.85 0 00-.27-.58.95.95 0 00-.64-.2c-.2 0-.37.04-.51.13a.87.87 0 00-.34.4c-.07.17-.11.37-.11.6v.16c0 .23.04.42.12.6.08.16.2.29.35.38.15.09.32.13.52.13s.37-.03.52-.09zm.71-.84c0-.17.03-.32.1-.46a.73.73 0 01.28-.31.82.82 0 01.43-.11c.23 0 .42.07.56.21.15.15.23.34.25.59v.12c0 .26-.07.48-.22.64a.76.76 0 01-.59.24.76.76 0 01-.59-.24.94.94 0 01-.22-.66v-.02zm.46.04c0 .16.03.29.09.38a.3.3 0 00.26.13.3.3 0 00.26-.13c.06-.09.1-.23.1-.42a.65.65 0 00-.1-.37.3.3 0 00-.26-.14.3.3 0 00-.26.14.73.73 0 00-.1.4zm2.25-.03c0-.28.06-.5.18-.65a.58.58 0 01.5-.24c.16 0 .3.06.4.19v-.89h.46V28h-.4l-.03-.22a.53.53 0 01-.44.22.58.58 0 01-.48-.24 1.1 1.1 0 01-.19-.67zm.46.03c0 .16.03.29.08.37.06.1.14.13.25.13.14 0 .24-.06.3-.18v-.68a.319.319 0 00-.3-.19c-.22 0-.33.19-.33.55zM19.26 30.2c-.2 0-.36.07-.49.22v-.92h-.5V32h.5v-1.27c.06-.1.17-.16.31-.16.1 0 .18.03.23.08.05.04.07.12.07.22V32h.5v-1.15c-.02-.43-.22-.65-.62-.65zm-1.97.95c.07.04.1.11.1.2 0 .09-.03.15-.1.2a.5.5 0 01-.29.07c-.32 0-.49-.13-.49-.39H16c0 .15.04.29.12.4.09.12.2.2.36.27.16.07.33.1.52.1.28 0 .5-.06.66-.17a.55.55 0 00.24-.48.6.6 0 00-.2-.46 1.58 1.58 0 00-.63-.3c-.16-.05-.28-.1-.36-.15-.08-.05-.12-.11-.12-.19s.03-.14.1-.2a.49.49 0 01.3-.07c.12 0 .22.03.3.09.07.06.1.14.1.25h.51a.64.64 0 00-.11-.38.73.73 0 00-.32-.25 1.3 1.3 0 00-.95 0 .74.74 0 00-.33.22.54.54 0 00-.11.34c0 .24.14.44.42.58.1.05.24.1.42.16.18.05.3.1.37.16zm4.1.85a.73.73 0 01-.06-.19.61.61 0 01-.46.19.68.68 0 01-.45-.15.47.47 0 01-.18-.37c0-.18.07-.33.22-.42.14-.1.35-.15.62-.15h.23v-.1a.27.27 0 00-.07-.2c-.04-.04-.1-.07-.2-.07a.31.31 0 00-.2.06.19.19 0 00-.07.15h-.49c0-.1.03-.2.1-.28a.65.65 0 01.28-.2c.12-.05.25-.07.4-.07.23 0 .41.05.54.16.14.1.2.26.2.45v.76c0 .16.03.29.08.37V32h-.5zm-.42-.36c.08 0 .14-.01.2-.04.07-.03.11-.07.14-.12v-.3h-.18c-.25 0-.38.08-.4.24v.03c0 .05.02.1.07.14.04.04.1.05.17.05zm2.14-.99l.18.01v-.44a.55.55 0 00-.15-.02.46.46 0 00-.4.24l-.02-.21h-.47V32h.5v-1.17c.05-.12.18-.18.36-.18zm1.3 1.35a.94.94 0 01-.66-.23.81.81 0 01-.25-.63v-.04a1 1 0 01.1-.47.76.76 0 01.3-.32.9.9 0 01.46-.11c.25 0 .45.07.6.22.14.15.21.36.21.64v.19H24c.01.11.06.2.14.27.08.07.18.1.3.1.2 0 .34-.06.45-.19l.24.26a.74.74 0 01-.3.23c-.12.05-.26.08-.42.08zm-.05-1.43c-.1 0-.18.03-.24.1a.47.47 0 00-.12.26h.69v-.03c0-.1-.03-.19-.1-.24-.05-.06-.13-.09-.23-.09zm2.07.78c.06.04.1.08.1.14 0 .05-.03.1-.08.13a.37.37 0 01-.22.05.4.4 0 01-.24-.07.24.24 0 01-.1-.18h-.46c0 .1.03.2.1.29a.7.7 0 00.28.21c.12.05.26.08.41.08.23 0 .42-.05.56-.15.15-.1.22-.22.22-.38 0-.22-.13-.38-.39-.47a2.18 2.18 0 00-.31-.08.87.87 0 01-.26-.08c-.05-.03-.08-.07-.08-.12 0-.06.02-.1.07-.14a.3.3 0 01.2-.05c.09 0 .16.02.2.06.05.05.07.1.07.17h.5c0-.17-.08-.3-.22-.4a.92.92 0 00-.56-.16c-.22 0-.4.05-.53.15-.14.1-.2.23-.2.39 0 .26.22.44.65.53.14.02.23.05.3.08z" fill="#284033"/><path d="M21 22v-.5h-2.5v1h1.16c-.28.34-.7.56-1.16.56-.83 0-1.5-.69-1.5-1.53 0-.85.67-1.53 1.5-1.53.65 0 1.2.42 1.4 1H21c-.18-1.14-1-2-2.48-2A2.51 2.51 0 0016 21.5c0 1.38.7 2.5 2.52 2.5.76 0 1.2-.2 1.48-.49V24h1v-2z" fill="#284033"/></svg>