<!-- by TradingView --><svg xmlns="http://www.w3.org/2000/svg" width="56" height="56"><path fill="#0E61FE" d="M0 0h56v56H0z"/><path d="M41.45 21H48v-1h-6.18l-.36 1zm-5 0l-.39-1H30v1h6.44zM30 22h6.82l.38 1H30v-1zm-2.2-1a4.48 4.48 0 00-2.8-1h-8v1h10.8zM17 22h11.71c.2.3.38.64.5 1H17v-1zm-1-1v-1H8v1h8zm-8 1h8v1H8v-1zm2 2h4v1h-4v-1zm0 3v-1h4v1h-4zm0 2v-1h4v1h-4zm0 2v-1h4v1h-4zm0 2v-1h4v1h-4zm0 1H8v1h8v-1h-6zm7 0v1h11.8c.24-.3.43-.64.59-1H17zm8-1h4.7c.07-.32.1-.66.1-1H25v1zm-3 0v-1h-3v1h3zm-3-2h10.7a4.96 4.96 0 00-.31-1H19v1zm0-2h9.8a5.03 5.03 0 00-1-1H19v1zm0-2h9.71c.2-.3.38-.64.5-1H19v1zm0-2v-1h3v1h-3zm6-1h4.44a4.54 4.54 0 010 1H25v-1zm7 2v1h6.72l-.38-1H32zm5.96-1H32v-1h5.58l.38 1zm1.67 1l-.36 1H46v-1h-6.37zM46 25h-6l.36-1H46v1zm0-2h2v-1h-6.91l-.36 1H46zm0 5h-7v1h7v-1zm0 2h-4v1h4v-1zm0 2h-4v1h4v-1zm0 2h-4v1h6v-1h-2zm2 2h-6v1h6v-1zm-9 1l.39-1H39v1zm0-2h.77l.38-1H39v1zm0-1v1h-.76l-.38-1H39zm0-1h1.54l.38-1H39v1zm0-1v1h-1.51l-.38-1h1.88zm0-1h2.3l.4-1H39v1zm0-1v1h-2.27l-.38-1H39zm0-1v-1h-7v1h7zm-7 1v1h4v-1h-4zm4 2h-4v1h4v-1zm0 2h-6v1h6v-1zm0 2h-6v1h6v-1zm-11 1a4.97 4.97 0 002.8-1H17v1h8zm-9 0v-1H8v1h8zm22.62-1h.37v1l-.37-1z" fill="#fff"/></svg>