<!-- by TradingView --><svg width="56" height="56" viewBox="0 0 56 56" xmlns="http://www.w3.org/2000/svg"><path fill="#EB1700" d="M0 0h56v56H0z"/><path d="M17.96 19H15v13.56c0 1.5-1.13 2.7-2.5 2.7s-2.5-1.2-2.5-2.7v-3.21l-3 .84v1.67C7 34.7 9.5 37 12.5 37s5.47-2.24 5.48-5.01c.02-3.95.04-9.33-.02-12.99ZM47.96 19H45v13.56c0 1.5-1.13 2.7-2.5 2.7s-2.5-1.2-2.5-2.7v-3.21l-3 .84v1.67C37 34.7 39.5 37 42.5 37s5.47-2.24 5.48-5.01c.02-3.95.04-9.33-.02-12.99Z" fill="#fff"/><path fill-rule="evenodd" d="M36 37h-3.98l-1.48-1.56C29.6 36.1 27.16 37 24.9 37a4.77 4.77 0 0 1-4.9-4.6c0-2.44 1.78-4.24 3.5-5l-.32-.38c-.66-.83-1.65-2.05-1.65-3.54 0-1.74 1.23-4.48 5.03-4.48 3.8 0 4.44 2.5 4.44 3.49 0 1-.7 2.43-2.36 3.17.42-.08.81-.2 1.2-.3A7.6 7.6 0 0 1 31.7 25c1.79 0 3.29.66 3.29 3.16 0 1.99-1.57 4.52-2.25 5.35L36 37Zm-9.5-10.78-1.41-1.55-.15-.17c-.4-.46-.94-1.06-.94-2.07 0-1.44 1.52-2.06 2.5-2.06s2.5.62 2.5 2.37c0 1.74-1.1 2.68-2.5 3.48Zm5.44 6.36L27.17 27c.19-.17.92-.53 2.4-.53 1.83 0 3.18 1.31 3.18 3.12 0 1.44-.54 2.74-.81 2.99Zm-2.15 1.69-5.56-6.11A4.2 4.2 0 0 0 23 31.27c0 2.26 1.3 3.73 3.56 3.73 1.81 0 3-.52 3.23-.73Z" fill="#fff"/></svg>