<!-- by TradingView --><svg width="56" height="56" fill="none" xmlns="http://www.w3.org/2000/svg"><path fill="#00B8D4" d="M0 0h56v56H0z"/><path fill-rule="evenodd" clip-rule="evenodd" d="M43.415 17.785c.672.803 1.048 1.828 1.065 3.037.018 1.256-.42 2.448-1.019 3.493-.602 1.052-1.416 2.043-2.278 2.927-1.253 1.284-2.682 2.418-3.899 3.263-.68.472-1.604.244-2.033-.465-.43-.708-.202-1.63.475-2.107 1.05-.739 2.26-1.71 3.31-2.786.751-.771 1.385-1.56 1.822-2.323.44-.769.63-1.425.623-1.96-.009-.58-.175-.924-.367-1.154-.21-.252-.543-.473-1.022-.639-.996-.344-2.29-.331-3.19-.182l-.492-2.959c1.187-.198 3.03-.258 4.662.306.834.288 1.688.767 2.343 1.549ZM12.668 38.155c-.672-.804-1.049-1.828-1.066-3.037-.018-1.256.42-2.448 1.019-3.493.602-1.052 1.417-2.043 2.279-2.927 1.253-1.285 2.681-2.418 3.898-3.263.681-.472 1.605-.244 2.034.465.43.708.201 1.63-.476 2.107-1.049.739-2.26 1.71-3.309 2.786-.752.771-1.386 1.56-1.822 2.323-.44.769-.63 1.425-.623 1.96.008.58.174.924.367 1.154.21.252.542.473 1.022.639.995.344 2.29.331 3.19.182l.492 2.959c-1.188.198-3.03.259-4.662-.306-.834-.288-1.689-.767-2.343-1.55ZM27.453 10.058c1.058-.106 2.135.143 3.177.768 2.11 1.267 3.201 3.835 3.79 6.09.446 1.701.665 3.463.746 4.903.046.812-.646 1.476-1.488 1.48a1.564 1.564 0 0 1-1.57-1.463c-.08-1.24-.273-2.734-.646-4.157-.56-2.143-1.418-3.71-2.47-4.341-.54-.324-.955-.38-1.271-.347-.337.033-.702.18-1.093.467-.82.601-1.498 1.632-1.849 2.426l-2.803-1.12c.475-1.078 1.432-2.618 2.831-3.644.719-.527 1.609-.958 2.646-1.062ZM28.629 45.94c-1.058.106-2.134-.143-3.177-.768-2.11-1.267-3.201-3.835-3.79-6.09-.446-1.701-.665-3.463-.746-4.903-.046-.812.646-1.476 1.488-1.48a1.564 1.564 0 0 1 1.57 1.463c.08 1.24.274 2.734.646 4.157.56 2.143 1.418 3.71 2.47 4.341.54.324.955.38 1.271.347.337-.033.702-.18 1.093-.467.82-.601 1.498-1.632 1.85-2.427l2.802 1.122c-.475 1.077-1.431 2.617-2.831 3.643-.718.527-1.609.958-2.646 1.062ZM44.672 35.976c-.39.95-1.115 1.75-2.172 2.35-2.14 1.212-5.016.959-7.373.422-1.778-.405-3.508-1.03-4.877-1.625a1.403 1.403 0 0 1-.69-1.952c.381-.72 1.298-.993 2.073-.663 1.183.503 2.654 1.026 4.14 1.364 2.239.51 4.085.503 5.157-.105.55-.311.793-.64.91-.925.123-.302.156-.68.07-1.145-.177-.974-.816-2.025-1.389-2.69l2.322-1.87c.777.902 1.761 2.427 2.066 4.095.156.855.145 1.813-.237 2.744ZM11.335 19.707c.389-.949 1.114-1.75 2.17-2.349 2.142-1.213 5.017-.96 7.374-.422 1.778.404 3.508 1.03 4.876 1.624a1.403 1.403 0 0 1 .69 1.952c-.38.72-1.297.993-2.072.663-1.184-.503-2.654-1.026-4.14-1.364-2.239-.51-4.085-.502-5.157.105-.55.311-.793.64-.91.925-.123.303-.156.681-.07 1.146.177.973.816 2.025 1.389 2.689l-2.322 1.87c-.777-.901-1.761-2.427-2.066-4.094-.156-.856-.144-1.814.238-2.745Z" fill="#fff"/><path d="M37.16 32.409c1.535-.983 4.907-3.718 6.634-5.876M18.874 23.556c-1.534.983-4.907 3.718-6.633 5.876M26.63 17.188c-1.668-.736-5.81-2.037-8.562-2.285M36.794 22.23c-.091-1.82-.788-6.105-1.803-8.676M29.212 38.37c1.655.762 5.776 2.129 8.524 2.42M19.277 34.096c.12 1.819.889 6.092 1.946 8.646" stroke="#00B8D4" stroke-width="3"/></svg>