<svg width="687" height="243" viewBox="0 0 687 243" fill="none" xmlns="http://www.w3.org/2000/svg">
<g clip-path="url(#clip0_287_23913)">
<mask id="mask0_287_23913" style="mask-type:luminance" maskUnits="userSpaceOnUse" x="0" y="0" width="687" height="243">
<path d="M687 0H0V243H687V0Z" fill="white"/>
</mask>
<g mask="url(#mask0_287_23913)">
<path d="M243.386 4.77998C245.499 4.67682 247.37 4.50486 249.241 4.50486C282.921 4.48194 316.589 4.50488 350.27 4.45904C373.201 4.43612 393.257 11.3937 409.906 27.5555C434.026 50.9729 438.575 90.5519 420.24 118.772C412.874 130.12 403.59 139.221 391.224 145.067C390.208 145.548 389.273 146.201 387.738 147.096C405.83 177.206 423.796 207.112 442.132 237.625C440.4 237.956 439.534 238.266 438.68 238.266C424.824 238.289 410.968 238.129 397.113 238.358C393.291 238.427 391.709 236.455 390.035 233.693C375.014 209.003 359.854 184.405 344.924 159.658C342.892 156.288 340.686 154.913 336.692 154.97C322.074 155.199 307.445 155.05 292.816 155.073C291.13 155.073 289.433 155.28 287.089 155.428V237.246H243.398V112.972C245.765 112.972 248.005 112.972 250.245 112.972C283.729 112.972 317.213 112.903 350.697 112.972C363.918 113.007 374.413 107.883 381.133 96.6041C393.869 75.2385 380.429 46.1129 353.537 45.6085C319.291 44.9666 285.033 45.3793 250.777 45.3449C248.49 45.3449 246.204 45.3449 243.375 45.3449V4.76851L243.386 4.77998Z" fill="#73737A"/>
<path d="M158.002 5.82297C123.144 55.1565 88.2858 104.49 52.7928 154.717H147.449V113.499H191.243C191.243 115.837 191.243 117.889 191.243 119.93C191.243 156.976 191.243 194.033 191.232 231.079C191.232 237.693 191.209 237.716 184.581 237.739C174.005 237.762 163.417 237.625 152.841 237.796C148.811 237.865 147.506 236.329 147.599 232.409C147.819 222.483 147.679 212.545 147.679 202.619C147.679 197.965 145.398 195.634 140.832 195.627C96.5877 195.627 52.3541 195.627 8.10895 195.627C6.03065 195.627 3.95232 195.627 1.28515 195.627C1.11195 193.093 0.881048 191.076 0.869498 189.07C0.823319 180.095 0.569283 171.109 0.961856 162.145C1.10041 158.947 2.15114 155.325 3.98699 152.723C37.6327 104.788 71.4862 57.002 105.178 9.08972C107.533 5.74274 110.039 4.40166 114.173 4.4819C126.862 4.73407 139.563 4.56215 152.252 4.56215C153.95 4.56215 155.646 4.56215 157.344 4.56215C157.563 4.99771 157.771 5.42179 157.991 5.85736L158.002 5.82297Z" fill="#73737A"/>
<path d="M686.877 57.4147C674.892 66.3438 663.114 75.101 650.818 84.2593C649.455 82.1961 648.404 80.6834 647.446 79.113C629.953 50.4571 598.075 37.1609 564.463 44.5426C533.774 51.2824 510.358 77.737 506.906 110.118C503.869 138.602 511.224 163.544 533.532 182.949C546.682 194.388 562.293 199.524 579.578 200.177C581.645 200.258 583.711 200.361 586.148 200.463V242.198C565.872 243.035 546.405 239.63 528.243 230.564C500.752 216.832 480.222 196.2 468.999 167.487C444.983 106.06 472.567 36.0949 531.13 10.8092C587.522 -13.5367 655.621 4.83733 686.853 57.4147H686.877Z" fill="#73737A"/>
</g>
</g>
<defs>
<clipPath id="clip0_287_23913">
<rect width="687" height="243" fill="white"/>
</clipPath>
</defs>
</svg>
