<svg width="675" height="265" viewBox="0 0 675 265" fill="none" xmlns="http://www.w3.org/2000/svg">
<g clip-path="url(#clip0_287_23923)">
<path d="M599.38 38.7165C557.677 38.7165 523.741 73.8802 523.741 117.108C523.741 160.336 557.677 195.5 599.38 195.5C641.074 195.5 675 160.336 675 117.108C675 73.8802 641.074 38.7165 599.38 38.7165ZM599.38 158.348C577.448 158.348 559.585 139.827 559.585 117.108C559.585 94.379 577.448 75.8686 599.38 75.8686C621.294 75.8686 639.166 94.379 639.166 117.108C639.166 139.838 621.313 158.348 599.38 158.348ZM376.65 101.232L363.424 94.3891C357.682 91.442 354.082 89.1609 352.634 87.4754C351.253 85.9819 350.468 84.0077 350.433 81.9445C350.433 79.3002 351.587 77.0696 353.857 75.3336C356.107 73.5169 359.305 72.6893 363.365 72.6893C370.79 72.6893 379.017 77.3119 388.076 86.6276L410.4 63.4845C404.915 55.778 397.741 49.5183 389.465 45.2163C381.298 40.9765 372.273 38.7908 363.13 38.8376C349.503 38.8376 338.253 42.9858 329.488 51.3427C320.733 59.6997 316.33 69.7421 316.33 81.5206C316.33 99.7888 327.923 115.009 351.186 127.09L363.365 133.398C373.862 138.879 379.086 144.46 379.086 150.233C379.086 153.362 377.628 156.067 374.733 158.469C371.837 160.881 368.002 162.022 363.248 162.022C358.846 162.022 353.798 160.457 348.114 157.278C342.451 154.15 337.412 149.945 333.264 144.884L311.058 169.955C323.579 186.911 340.278 195.45 361.272 195.45C377.051 195.45 389.641 190.999 398.974 182.157C408.365 173.326 413.061 162.264 413.061 149.032C413.061 139.111 410.459 130.401 405.293 123.003C400.079 115.604 390.512 108.398 376.65 101.242V101.232ZM152.08 178.423V41.8352H116.178V50.9794C104.081 42.9572 90.0002 38.6998 75.6196 38.7165C33.9261 38.7165 0 73.8802 0 117.108C0 160.336 33.9261 195.5 75.6293 195.5C89.8374 195.522 103.758 191.374 115.767 183.54C115.767 184.741 115.709 185.821 115.709 186.548C115.709 209.267 97.8457 227.787 75.9228 227.787C68.4687 227.769 61.1709 225.579 54.8707 221.469L37.1152 253.696C48.8231 261.064 62.2673 264.975 75.9815 265C117.685 265 152.08 229.826 152.08 186.598C152.08 184.923 152.188 179.987 152.08 178.423ZM75.6293 158.338C53.7163 158.338 35.8435 139.827 35.8435 117.108C35.8435 94.379 53.7065 75.8686 75.6293 75.8686C97.5522 75.8686 115.415 94.379 115.415 117.108C115.415 139.827 97.5522 158.348 75.6293 158.348V158.338ZM295.092 41.7847H259.014V116.311C259.073 126.898 259.073 145.177 251.54 152.989C247.94 156.713 243.998 160.084 235.702 160.084C227.348 160.084 223.405 156.713 219.815 152.989C212.273 145.167 212.332 126.838 212.38 116.311V41.7847H176.312V116.089C176.195 131.41 176.018 159.852 194.116 178.726C204.73 189.787 217.379 195.44 235.643 195.44C253.917 195.44 266.557 189.848 277.171 178.726C295.268 159.852 295.092 131.349 294.975 116.089L295.092 41.7847ZM499.539 151.677C496.643 153.958 489.62 159.014 481.676 157.874C475.18 156.965 469.908 152.04 469.096 135.568V73.7692H511.493V41.6636H469.096V0H433.135V8.17527H433.076V130.703C433.076 150.183 437.83 195.44 481.617 195.44C503.775 195.086 517.226 182.642 522.861 177.777L523.614 177.171L502.034 149.638C501.975 149.688 500.468 150.95 499.539 151.677Z" fill="#73737A"/>
</g>
<defs>
<clipPath id="clip0_287_23923">
<rect width="675" height="265" fill="white"/>
</clipPath>
</defs>
</svg>
