<svg width="646" height="513" viewBox="0 0 646 513" fill="none" xmlns="http://www.w3.org/2000/svg">
<g clip-path="url(#clip0_287_23928)">
<path d="M154.486 3.80005C134.298 9.26254 109.861 24.9375 91.7984 43.9375C82.8734 53.4375 58.4359 80.75 37.8234 104.975L0.210938 148.675L51.6359 208.05C79.6859 240.588 108.373 271.7 115.386 277.163C133.873 291.888 149.598 297.113 178.073 298.538C213.348 300.438 234.386 294.738 261.373 275.975C268.811 270.988 301.748 235.363 350.623 180.263C427.548 93.5751 428.398 92.8625 440.723 88.825C451.561 85.5 455.173 85.2625 465.161 87.875C476.423 90.725 478.761 92.625 504.261 120.65L531.248 150.575L510.636 174.088C485.773 201.875 472.811 210.188 454.536 209.95C439.661 209.713 425.848 201.638 406.936 182.4C399.498 174.8 392.698 168.625 391.636 168.625C390.786 168.625 378.036 182.163 363.373 198.55L336.811 228.238L356.148 248.9C377.186 271.463 391.848 282.388 413.948 291.65C426.698 297.113 431.373 297.825 456.873 297.825C511.061 298.063 525.298 289.038 596.911 207.813L646.211 151.763L605.836 104.975C529.761 16.3875 525.511 12.5876 492.998 3.32504C472.386 -2.61246 433.073 -0.474945 413.948 7.60004C384.836 19.7126 378.673 25.4125 299.623 114.713C258.186 161.5 220.361 202.588 215.473 205.675C204.423 212.8 190.611 214.938 178.498 211.375C170.636 209 164.261 203.538 141.736 178.6L114.536 148.438L137.061 123.975C162.561 96.1875 171.698 90.4875 189.761 90.25C206.973 90.25 214.836 94.7625 233.536 115.188C242.673 124.925 250.961 133 252.023 133C254.786 133 305.998 75.2875 305.998 72.4375C305.998 69.35 278.373 39.1875 266.686 29.2126C254.148 18.5251 233.323 7.60004 218.448 3.56253C201.873 -0.712463 170.848 -0.712463 154.486 3.80005Z" fill="#73737A"/>
<path d="M508.938 391.875C490.025 396.387 478.763 405.175 471.113 421.325C467.5 429.162 466.438 435.1 466.438 451.25C466.438 480.7 474.3 495.187 495.975 505.875C513.825 514.9 558.45 511.575 555.9 501.6C555.475 499.462 554.2 494 553.562 489.725C552.288 482.837 551.438 481.887 547.613 483.312C545.062 484.025 537.2 485.212 530.188 485.925C507.45 488.062 494.488 475.712 494.275 451.487C494.062 426.55 506.812 414.437 531.25 416.337C538.9 417.05 546.55 418.237 548.675 419.187C551.225 420.375 552.5 418.95 553.562 412.775C554.2 408.5 555.475 403.275 555.9 400.9C556.538 398.287 554.838 396.387 549.95 394.487C539.537 390.925 518.713 389.5 508.938 391.875Z" fill="#73737A"/>
<path d="M89.25 452.438V513H103.062H116.875V452.438V391.875H103.062H89.25V452.438Z" fill="#73737A"/>
<path d="M257.125 392.825C257.125 393.537 264.775 417.763 274.337 446.975C283.9 476.188 292.612 502.788 293.675 506.588C295.588 512.525 296.65 513 307.062 513C317.475 513 318.538 512.525 320.45 506.35C321.513 502.788 330.225 476.188 339.788 446.975C349.35 417.763 357 393.537 357 392.825C357 392.113 350.625 391.875 342.763 392.35L328.312 393.062L317.9 430.113L307.275 467.163L296.438 430.113L285.6 393.062L271.363 392.35C263.5 391.875 257.125 392.113 257.125 392.825Z" fill="#73737A"/>
</g>
<defs>
<clipPath id="clip0_287_23928">
<rect width="646" height="513" fill="white"/>
</clipPath>
</defs>
</svg>
