<svg width="1168" height="448" viewBox="0 0 1168 448" fill="none" xmlns="http://www.w3.org/2000/svg">
<path d="M598.302 106.822V4.06824C604.534 2.07407 628.464 1.59334 641.675 3.01775C641.96 3.26702 642.209 3.44506 642.387 3.67653C642.548 3.89019 642.743 4.17506 642.743 4.44213C642.832 92.524 642.904 180.606 642.957 268.688C642.957 269.827 642.726 270.967 642.619 272.017C635.853 273.584 611.834 273.762 602.272 272.285V249.245C596.521 254.604 591.732 260.052 585.981 264.201C574.212 272.676 560.769 276.807 546.204 276.932C535.592 277.021 525.052 277.252 514.6 274.154C489.263 266.658 472.455 249.993 462.004 226.347C455.238 211.035 452.211 194.725 452.656 178.167C453.244 156.106 457.944 134.865 471.031 116.383C485.097 96.5124 504.042 85.313 528.452 82.0725C538.708 80.7193 548.501 81.5027 558.223 83.2832C571.844 85.7581 583.898 91.9899 593.138 102.762C594.492 104.329 595.596 106.109 596.824 107.783C597.323 107.48 597.803 107.16 598.302 106.857V106.822ZM600.1 179.377C601.471 166.807 597.981 155.073 591.661 144.052C588.723 138.924 585.393 134.188 580.408 130.591C570.472 123.434 559.718 119.641 547.344 120.086C527.972 120.763 513.372 129.167 504.344 146.349C494.106 165.828 493.928 186.375 501.478 206.423C508.796 225.849 525.069 238.579 547.735 239.131C569.636 239.666 587.868 226.347 595.578 207.349C599.174 198.5 601.008 189.277 600.1 179.395V179.377Z" fill="#73737A"/>
<path d="M1125.44 107.088V2.83887H1167.97V272.284C1161.87 274.349 1155.37 272.889 1148.99 273.174C1142.78 273.441 1136.56 273.227 1130.24 273.227C1127.64 269.221 1129.19 264.984 1128.91 260.995C1128.64 257.167 1128.86 253.321 1128.86 247.873C1126.91 250.33 1125.85 251.737 1124.72 253.09C1115.57 264.307 1103.41 271.287 1089.75 274.527C1073.59 278.355 1057.15 278.338 1040.72 273.868C1023.61 269.221 1010.29 259.375 999.768 245.808C989.299 232.329 983.405 216.785 980.877 199.71C977.743 178.54 978.989 157.993 986.307 137.873C993.073 119.284 1003.92 103.829 1021.08 93.3957C1031.02 87.3597 1041.86 84.1549 1053.38 82.1963C1064.45 80.309 1074.96 81.4841 1085.7 83.7632C1099.8 86.7722 1111.57 93.467 1121.23 104.061C1122.04 104.933 1122.91 105.735 1123.78 106.536C1123.98 106.714 1124.33 106.732 1125.42 107.07L1125.44 107.088ZM1075.21 120.139C1051.92 118.839 1032.96 135.202 1027.1 154.574C1023.48 166.521 1021.26 178.29 1023.75 190.986C1025.83 201.597 1029.25 211.07 1035.45 220.097C1045.9 235.338 1072.98 244.65 1094.4 235.285C1112.12 227.539 1121.5 213.545 1125.51 195.027C1127.88 184.095 1127.59 173.358 1125.29 162.604C1120.04 137.962 1100.95 119.017 1075.21 120.139Z" fill="#73737A"/>
<path d="M130.187 272.747C112.453 247.072 94.3807 220.898 76.0236 194.315C68.9193 198.891 64.6995 205.319 59.6251 210.91C54.4616 216.607 48.942 222.002 43.1732 227.949V272.302C35.7484 274.029 28.6798 272.996 21.7002 273.174C14.9164 273.352 8.11485 273.21 0.35182 273.21C-0.271359 261.654 0.138206 250.491 0.0669859 239.362C-0.00423454 228.092 0.0669859 216.821 0.0669859 205.551V3.28431C7.4383 1.61063 14.5069 2.60775 21.4865 2.4297C28.2703 2.25165 35.0718 2.39406 41.4461 2.39406C42.0692 3.07065 42.3007 3.2665 42.4787 3.49797C42.6568 3.72943 42.8883 3.97871 42.8883 4.22798C42.9061 60.8483 42.8883 117.469 42.8883 176.332C70.1657 145.102 96.0721 115.457 121.48 86.3631H176.48C152.194 112.893 128.495 138.746 104.547 164.884C130.418 200.868 155.897 236.282 181.465 271.839C175.002 273.584 149.078 274.029 130.187 272.729V272.747Z" fill="#73737A"/>
<path d="M962.13 191.609H821.629C823.908 216.376 837.725 234.235 859.234 238.223C879.336 241.945 899.562 242.692 917.261 213.599C925.487 212.281 952.996 212.441 959.886 213.937C953.476 234.733 941.903 251.488 923.225 263.044C907.788 272.587 891.141 277.323 872.872 277.11C860.961 276.967 849.441 275.792 838.153 271.679C817.249 264.058 801.438 250.687 790.969 231.155C784.666 219.385 781.212 206.815 779.467 193.408C776.066 167.412 780.963 143.5 795.135 121.707C810.341 98.3285 832.17 85.7224 860.017 82.1792C879.817 79.6509 898.174 83.0873 915.605 91.7406C930.793 99.2899 942.188 111.344 950.592 126.033C961.827 145.654 964.907 167.003 963.376 189.241C963.34 189.758 962.86 190.239 962.112 191.627L962.13 191.609ZM920.092 159.151C914.999 124.858 887.01 114.602 865.804 117.006C837.654 120.175 822.074 143.518 823.534 159.151H920.092Z" fill="#73737A"/>
<path d="M311.924 272.925H269.067C268.55 241.624 268.907 210.607 268.835 179.591C268.764 148.788 268.835 117.967 268.835 86.4167C275.726 85.5086 282.189 86.0784 288.581 85.9715C294.777 85.8647 300.974 85.9537 307.472 85.9537C309.538 92.9511 307.65 99.8061 308.879 107.231C310.731 105.486 312.369 104.115 313.793 102.548C324.832 90.4584 338.471 84.4582 354.763 82.0189C367.226 80.1671 378.996 81.6449 390.498 84.8142C407.929 89.6215 420.517 101.07 427.995 117.593C432.393 127.297 435.046 137.5 434.993 148.378C434.832 188.137 434.939 227.878 434.939 267.637C434.939 269.097 434.779 270.539 434.654 272.391C427.532 274.011 420.464 273.014 413.466 273.192C406.683 273.37 399.881 273.228 392.118 273.228C392.011 269.631 391.833 266.48 391.833 263.346C391.815 228.039 391.798 192.749 391.833 157.441C391.833 149.625 390.124 142.253 386.563 135.345C379.049 120.816 362.971 117.059 348.478 119.036C342.762 119.819 336.922 121.849 331.83 124.591C317.96 132.122 312.974 145.298 312.102 160.041C311.372 172.166 311.924 184.363 311.924 196.524C311.924 218.78 311.924 241.019 311.924 263.275V272.925Z" fill="#73737A"/>
<path d="M673.473 272.515V87.2883C679.936 85.668 703.278 85.3831 714.015 86.861C714.068 90.4576 714.157 94.2323 714.193 97.9892C714.229 101.497 714.193 105.022 714.193 109.367C729.755 88.6415 750.124 82.5343 773.876 84.6175C775.282 93.8227 775.175 117.824 773.787 124.661C759.614 122.542 746.438 124.982 734.242 132.763C727.921 136.787 724.288 142.609 721.44 149.215C717.487 158.349 716.686 168.177 716.508 177.756C715.956 206.511 716.294 235.284 716.33 264.04C716.33 266.621 716.597 269.203 716.721 271.696C710.596 273.565 687.325 274.028 673.473 272.497V272.515Z" fill="#73737A"/>
<path d="M239.9 273.228C227.579 273.228 215.739 273.228 203.898 273.228C202.171 273.228 200.426 273.085 198.824 273.014C197.31 266.177 196.865 99.4143 198.236 87.0931C204.664 85.7043 228.683 85.4016 239.544 86.5945C240.951 92.951 241.396 260.283 239.9 273.228Z" fill="#73737A"/>
<path d="M229.216 419.159H182.922C183.545 426.904 187.712 431.605 194.46 433.029C202.365 434.685 209.95 433.67 214.063 424.963H228.058C227.631 427.029 227.631 428.72 226.954 430.109C222.111 439.991 210.769 448.342 194.763 446.454C181.747 444.923 173.646 437.926 169.479 426.121C165.028 413.479 166.88 401.14 175.658 391.258C190.08 375.002 218.354 379.08 226.456 397.775C229.322 404.381 231.067 411.004 229.216 419.159ZM214.936 406.357C210.787 392.968 203.256 393.537 193.819 394.428C188.691 394.908 184.721 400.321 184.436 406.357H214.936Z" fill="#73737A"/>
<path d="M1009.85 418.998H962.451C964.356 426.405 967.472 431.871 974.737 433.153C982.838 434.577 990.12 433.153 994.073 425.105H1007.96C1007.3 433.652 1001.78 438.423 995.978 442.091C984.975 449.035 970.481 449.071 958.89 440.133C950.468 433.634 944.949 417.039 948.367 406.41C950.094 401.015 952.213 396.029 955.828 391.525C966.155 378.687 986.702 378.883 997.616 387.02C1005.34 392.771 1008.44 400.766 1009.78 409.739C1010.17 412.339 1009.83 415.027 1009.83 418.998H1009.85ZM963.662 406.392H994.554C990.583 395.549 987.824 393.661 977.069 394.124C969.734 394.445 965.852 397.81 963.662 406.392Z" fill="#73737A"/>
<path d="M218.589 54.4387C203.953 56.0946 191.65 43.5064 191.935 28.105C192.184 14.4485 201.229 0.542671 219.408 0.952189C234.685 1.29049 246.026 11.5106 246.187 28.9774C246.294 41.0493 236.091 56.3973 218.589 54.4387Z" fill="#73737A"/>
<path d="M354.531 445.207H339.574V383.138H351.717C352.358 384.883 352.928 386.468 353.676 388.498C359.872 381.572 367.991 380.806 376.377 381.625C386.633 382.622 394.004 388.64 395.126 400.659C396.479 415.277 395.447 430.108 395.447 445.332H381.452C381.292 442.857 381.025 440.596 381.007 438.317C380.953 429.432 381.096 420.547 380.918 411.662C380.864 408.778 380.366 405.804 379.547 403.027C377.357 395.531 373.885 393.465 365.659 394.338C359.997 394.925 354.833 400.196 354.655 406.214C354.388 414.796 354.53 423.396 354.513 431.978C354.513 436.109 354.513 440.257 354.513 445.189L354.531 445.207Z" fill="#73737A"/>
<path d="M1114.33 424.874H1127.74C1132.58 434.24 1138.76 436.732 1147.87 433.403C1150.38 432.477 1152.02 431.266 1152.27 428.56C1152.56 425.444 1151.1 423.361 1148.18 422.542C1143.96 421.349 1139.63 420.512 1135.43 419.248C1131.78 418.161 1128.06 417.075 1124.71 415.33C1117.36 411.502 1114.51 399.555 1119.69 392.13C1124.1 385.792 1130.07 381.679 1138.17 381.59C1141.43 381.554 1144.7 381.394 1147.94 381.679C1158.73 382.676 1165.84 390.599 1166.16 402.066C1162.24 403.811 1158.22 402.974 1153.82 402.529C1151.4 396.368 1147.11 393.395 1140.16 394C1135.75 394.374 1132.77 395.638 1131.63 400.321C1132.24 404.345 1135.37 405.68 1138.99 406.517C1143.85 407.639 1148.78 408.493 1153.54 409.935C1163.83 413.087 1166.53 417.058 1166.84 426.975C1167.12 436.109 1164.09 441.272 1153.11 445.083C1143.92 448.27 1134.11 448.092 1124.98 443.178C1118 439.421 1115.36 433.331 1114.33 424.874Z" fill="#73737A"/>
<path d="M644.626 383.566C649.754 383.316 653.832 383.103 658.55 382.871C658.746 384.438 659.173 386.361 659.191 388.284C659.262 397.489 659.227 406.676 659.227 415.882C659.227 417.662 659.102 419.461 659.262 421.223C660.099 430.001 663.446 433.42 671.156 433.491C679.168 433.562 684.937 428.826 685.382 420.974C685.81 413.585 685.489 406.142 685.489 398.718C685.489 393.447 685.489 388.177 685.489 382.871C690.635 383.12 694.926 383.334 699.662 383.548V445.581C697.276 445.688 695.264 445.883 693.27 445.83C691.276 445.777 689.282 445.456 686.842 445.207V439.865C686.29 439.954 685.667 439.865 685.4 440.115C677.263 448.287 667.381 448.162 657.553 444.958C648.561 442.02 645.178 433.972 644.787 425.372C644.181 411.787 644.626 398.148 644.626 383.566Z" fill="#73737A"/>
<path d="M40.6652 445.51H26.7594C18.302 424.802 9.89802 404.202 1.35156 383.245H17.2693C22.6642 397.56 27.9346 411.537 33.6856 426.832C39.5791 411.769 45.0987 397.667 50.5827 383.637H65.8951C57.3487 404.593 49.0514 424.927 40.6652 445.51Z" fill="#73737A"/>
<path d="M525.657 430.412C529.716 431.498 533.17 432.406 537.034 433.439V445.742C532.227 445.742 528.096 446.258 524.143 445.635C516.754 444.46 511.323 437.801 511.11 429.913C510.86 421.331 511.021 412.731 511.021 404.149C511.021 401.229 511.021 398.327 511.021 394.909C507.656 394.588 504.825 394.321 502.029 394.054C501.044 390.339 501.091 386.582 502.172 382.783H510.576C510.825 377.299 511.074 372.136 511.323 366.67C515.792 365.156 520.101 365.851 525.158 366.046V381.448C529.057 384.653 532.618 382.463 536.179 382.712C539.277 385.988 537.639 389.745 537.711 393.929C533.793 394.214 530.357 394.463 525.888 394.784C525.354 406.09 525.728 417.468 525.674 430.43L525.657 430.412Z" fill="#73737A"/>
<path d="M814.28 383.69C818.5 383.334 822.221 383.032 826.53 382.658C827.26 384.26 828.061 386.023 829.005 388.07C834.382 384.741 839.724 380.343 847.434 382.302V395.282C845.742 395.531 843.801 395.976 841.861 396.083C835.415 396.403 831.355 399.608 830.002 405.911C829.272 409.33 828.56 412.82 828.471 416.292C828.257 425.728 828.4 435.165 828.4 444.637C823.735 447.005 819.355 445.154 815.277 446.026C813.408 439.189 812.874 402.422 814.298 383.708L814.28 383.69Z" fill="#73737A"/>
</svg>
