<svg width="1060" height="250" viewBox="0 0 1060 250" fill="none" xmlns="http://www.w3.org/2000/svg">
<g clip-path="url(#clip0_287_23899)">
<path d="M216 76.9245L83.0769 0L66.4615 9.6225V28.849L49.8462 19.2265L33.2308 28.849V48.0755L16.6154 38.453L0 48.0755V201.924L16.6154 211.547L33.2308 201.924V221.151L49.8462 230.774L66.4615 221.151V240.377L83.0769 250L216 173.075V153.849L199.385 144.226L216 134.604V115.377L199.385 105.755L216 96.1325V76.9245ZM33.2308 182.698L16.6154 192.32V57.698L33.2308 67.3205V182.698ZM83.0769 192.302V173.075L149.538 134.622L166.154 144.245L83.0769 192.302ZM132.923 125L83.0769 153.849V96.151L132.923 125ZM149.538 115.377L83.0769 76.9245V57.698L166.154 105.774L149.538 115.377ZM49.8462 38.453L66.4615 48.0755V67.302L49.8462 57.6795V38.453ZM49.8462 76.9245L66.4615 86.547V163.471L49.8462 173.094V76.9245ZM49.8462 192.302L66.4615 182.679V201.906L49.8462 211.528V192.302ZM199.385 163.453L83.0769 230.755V211.528L182.769 153.83L199.385 163.453ZM199.385 125L182.769 134.622L166.154 125L182.769 115.377L199.385 125ZM182.769 96.151L83.0769 38.453V19.2265L199.385 86.5285L182.769 96.151Z" fill="#73737A"/>
<path d="M285.22 192.544H266V58H324.641C351.556 58 367.891 74.3325 367.891 98.3596C367.891 122.387 351.556 138.719 324.641 138.719H285.239V192.544H285.22ZM348.671 98.3596C348.671 84.9126 340.975 74.3325 324.641 74.3325H285.239V122.387H324.641C340.975 122.387 348.671 111.807 348.671 98.3596ZM375.013 118.539C376.937 102.577 390.385 89.7032 417.504 89.7032C434.042 89.7032 448.064 94.1239 455.186 106.036C458.257 111.233 459.996 118.151 459.996 126.216V192.526H441.534V180.022C435.762 187.717 424.238 195.393 407.885 195.393C387.499 195.393 370.203 184.813 370.203 162.709C370.203 145.415 381.931 133.115 406.923 130.988L441.534 128.102V126.179C441.534 112.731 435.762 104.075 417.504 104.075C402.89 104.075 395.01 109.846 394.048 118.484H375.013V118.539ZM441.515 149.299V141.605L408.828 144.49C395.361 145.637 388.646 152.185 388.646 162.746C388.646 176.212 398.266 181.002 409.79 181.002C427.105 181.021 441.515 169.479 441.515 149.299ZM516.879 107.978C503.43 107.978 494.773 115.672 494.773 132.967V192.563H476.311V92.5887H494.773V104.131C499.583 95.4741 507.26 90.665 521.689 90.665H526.887V107.959H516.879V107.978ZM532.455 118.539C534.379 102.577 547.827 89.7032 574.946 89.7032C591.484 89.7032 605.506 94.1239 612.628 106.036C615.699 111.233 617.438 118.151 617.438 126.216V192.526H598.976V180.022C593.205 187.717 581.68 195.393 565.327 195.393C544.941 195.393 527.645 184.813 527.645 162.709C527.645 145.415 539.373 133.115 564.365 130.988L598.976 128.102V126.179C598.976 112.731 593.205 104.075 574.946 104.075C560.332 104.075 552.452 109.846 551.49 118.484H532.455V118.539ZM598.976 149.299V141.605L566.289 144.49C552.822 145.637 546.107 152.185 546.107 162.746C546.107 176.212 555.726 181.002 567.251 181.002C584.547 181.021 598.976 169.479 598.976 149.299ZM708.174 179.097C702.402 188.716 690.878 195.43 675.487 195.43C645.5 195.43 629.166 171.403 629.166 142.567C629.166 113.73 645.5 89.7032 675.487 89.7032C690.859 89.7032 702.402 96.436 708.174 106.036V58H726.617V192.563H708.155V179.097H708.174ZM678.372 105.092C658.19 105.092 647.609 121.425 647.609 142.567C647.609 163.708 658.19 180.059 678.372 180.059C698.555 180.059 709.136 162.765 709.136 142.567C709.136 122.387 698.555 105.092 678.372 105.092ZM797.763 177.174V192.544H738.549V177.174H758.934V107.978H738.549V92.6072H777.377V177.192H797.763V177.174ZM777.377 77.218H758.916V58H777.377V77.218ZM875.42 177.174C871.573 182.945 861.01 191.583 843.695 191.583C815.633 191.583 797.374 168.517 797.374 140.643C797.374 112.768 815.633 89.7032 843.695 89.7032C860.991 89.7032 871.573 98.3596 875.42 104.112V92.5702H893.882V181.946C893.882 213.668 875.624 230 846.581 230C824.271 230 807.937 218.458 804.089 201.164H823.31C825.048 208.082 832.152 215.573 846.562 215.573C867.706 215.573 875.402 202.126 875.402 181.927V177.174H875.42ZM845.637 105.092C827.379 105.092 815.836 121.425 815.836 140.661C815.836 159.879 827.361 176.23 845.637 176.23C864.858 176.23 876.401 159.898 876.401 140.661C876.382 121.425 864.858 105.092 845.637 105.092ZM929.251 104.131C935.023 93.5505 946.548 89.7217 958.091 89.7217C971.539 89.7217 984.045 95.4926 989.816 107.016C995.588 96.436 1006.15 89.7217 1023.47 89.7217C1044.61 89.7217 1060 102.225 1060 127.196V192.544H1041.54V130.081C1041.54 113.749 1034.8 105.092 1019.62 105.092C1007.11 105.092 994.626 112.787 994.626 132.967V192.563H976.164V130.1C976.164 113.767 969.431 105.111 954.243 105.111C941.738 105.111 929.251 112.805 929.251 132.985V192.581H910.79V92.5887H929.251V104.131Z" fill="#73737A"/>
</g>
<defs>
<clipPath id="clip0_287_23899">
<rect width="1060" height="250" fill="white"/>
</clipPath>
</defs>
</svg>
